<svg xmlns="http://www.w3.org/2000/svg" width="2560" height="1572" viewBox="0 0 2560 1572" version="1.1"><path d="M 1541 109.135 C 1445.828 115.093, 1348.438 150.490, 1274.500 205.998 C 1209.459 254.826, 1180.743 300.686, 1169.305 374 C 1166.713 390.610, 1166.724 442.543, 1169.323 462.500 C 1175.371 508.936, 1188.332 556.988, 1206.012 598.527 C 1208.205 603.681, 1210 608.247, 1210 608.674 C 1210 609.101, 1206.737 606.266, 1202.750 602.376 C 1177.510 577.746, 1141.612 553.220, 1105.500 535.929 C 1057.471 512.933, 1006.174 499.330, 947 493.896 C 932.204 492.537, 884.051 492.469, 874.500 493.794 L 868.500 494.626 872.973 495.911 C 882.619 498.684, 915.550 510.580, 935.666 518.558 C 1038.848 559.482, 1112.960 608.947, 1151.705 662.752 C 1164.219 680.130, 1174.337 705.061, 1172.610 714.264 C 1170.224 726.986, 1152.535 735.417, 1119.462 739.598 C 1109.245 740.890, 1097.960 741.381, 1077.393 741.432 L 1049.286 741.500 1053.393 743.867 C 1063.820 749.878, 1119.064 777.560, 1132.500 783.507 C 1210.774 818.151, 1292.059 836.837, 1355 834.655 C 1387.351 833.533, 1409.866 826.728, 1428.654 812.393 C 1453.810 793.200, 1465.421 759.331, 1460.942 718.211 C 1457.783 689.208, 1449.909 664.055, 1431.764 625 C 1385.499 525.420, 1363.570 464.226, 1351.136 400 C 1345.449 370.628, 1344.500 360.259, 1344.500 327.500 C 1344.500 294.622, 1345.378 286.021, 1350.980 264 C 1360.182 227.825, 1380.745 199.432, 1417.061 172.755 C 1449.284 149.085, 1497.806 127.340, 1547 114.525 C 1554.975 112.448, 1563.525 110.177, 1566 109.478 L 1570.500 108.208 1562.500 108.249 C 1558.100 108.271, 1548.425 108.670, 1541 109.135 M 883.249 814.206 C 884.323 817.006, 895.114 860.220, 894.804 860.482 C 894.637 860.623, 885.950 866.040, 875.500 872.520 C 853.027 886.453, 852.322 887, 856.805 887 C 860.727 887, 902.353 889.993, 902.558 890.290 C 902.638 890.405, 905.309 900.999, 908.492 913.832 C 912.164 928.631, 914.588 936.676, 915.121 935.832 C 915.583 935.099, 919.636 925.275, 924.129 914 C 928.621 902.725, 932.596 893.157, 932.961 892.737 C 933.326 892.318, 943.414 892.683, 955.379 893.548 C 967.344 894.414, 978.079 894.982, 979.235 894.811 C 980.859 894.571, 977.124 890.983, 962.833 879.053 L 944.329 863.606 953.151 841.623 C 958.004 829.533, 961.776 819.442, 961.533 819.200 C 961.291 818.957, 952.045 824.463, 940.986 831.434 L 920.881 844.110 903.190 829.245 C 883.824 812.971, 882.348 811.858, 883.249 814.206 M 1665.420 828.132 C 1656.114 835.901, 1647.764 842.898, 1646.865 843.679 C 1645.415 844.941, 1642.907 843.635, 1624.615 832.097 C 1613.277 824.945, 1604 819.426, 1604 819.834 C 1604 820.242, 1607.991 830.520, 1612.869 842.674 L 1621.738 864.773 1603.224 880.136 C 1586.109 894.339, 1584.933 895.523, 1587.663 895.799 C 1589.288 895.964, 1600.032 895.415, 1611.540 894.581 C 1623.047 893.746, 1632.772 893.386, 1633.150 893.781 C 1633.529 894.177, 1637.754 904.308, 1642.540 916.296 C 1647.326 928.284, 1651.373 937.959, 1651.533 937.796 C 1651.694 937.633, 1654.380 927.375, 1657.503 915 C 1660.626 902.625, 1663.477 892.186, 1663.840 891.803 C 1664.410 891.200, 1703.010 888, 1709.711 888 C 1711.035 888, 1711.873 887.604, 1711.574 887.120 C 1711.275 886.636, 1705.736 882.945, 1699.265 878.916 C 1692.794 874.888, 1683.833 869.236, 1679.352 866.356 L 1671.204 861.120 1677.042 837.833 C 1680.253 825.026, 1682.758 814.425, 1682.610 814.276 C 1682.461 814.128, 1674.726 820.363, 1665.420 828.132 M 1086.479 908.649 C 1078.791 918.905, 1072.258 927.666, 1071.961 928.116 C 1071.665 928.566, 1061.104 925.373, 1048.493 921.019 C 1035.881 916.666, 1025.457 913.210, 1025.327 913.340 C 1025.197 913.470, 1031.339 922.495, 1038.977 933.396 L 1052.864 953.215 1038.481 972.358 C 1030.571 982.886, 1024.492 991.639, 1024.973 991.808 C 1025.454 991.977, 1035.582 989.126, 1047.479 985.472 C 1059.376 981.818, 1069.658 979.039, 1070.328 979.296 C 1070.998 979.553, 1077.611 988.438, 1085.023 999.040 L 1098.500 1018.317 1099.117 998.908 C 1099.456 988.234, 1099.794 977.216, 1099.867 974.425 L 1100 969.351 1122.250 962.568 C 1134.487 958.837, 1144.826 955.484, 1145.225 955.117 C 1145.624 954.750, 1135.619 950.900, 1122.991 946.562 L 1100.031 938.674 1100.675 914.337 C 1101.030 900.952, 1101.126 890, 1100.889 890 C 1100.652 890, 1094.168 898.392, 1086.479 908.649 M 1460.838 917.254 L 1461.176 941.510 1437.838 949.471 L 1414.500 957.431 1426.500 961.151 C 1433.100 963.197, 1443.787 966.500, 1450.250 968.491 L 1462 972.111 1462 996.056 C 1462 1009.225, 1462.358 1020, 1462.795 1020 C 1463.232 1020, 1469.621 1011.422, 1476.992 1000.938 C 1484.362 990.453, 1490.642 981.723, 1490.947 981.537 C 1491.251 981.351, 1501.601 984.291, 1513.947 988.069 C 1526.293 991.847, 1536.568 994.765, 1536.781 994.553 C 1536.993 994.340, 1531.035 986.016, 1523.541 976.055 C 1516.047 966.094, 1509.695 957.369, 1509.426 956.667 C 1509.156 955.964, 1515.049 946.701, 1522.520 936.081 C 1529.992 925.461, 1535.947 916.614, 1535.754 916.420 C 1535.560 916.227, 1525.606 919.428, 1513.632 923.534 C 1501.658 927.640, 1491.330 930.982, 1490.681 930.961 C 1490.031 930.939, 1483.200 922.407, 1475.500 912 C 1467.800 901.593, 1461.275 893.061, 1461 893.039 C 1460.725 893.017, 1460.652 903.914, 1460.838 917.254 M 1283.034 919 C 1282.978 919.275, 1279.615 929.625, 1275.560 942 L 1268.188 964.500 1243.425 965 L 1218.661 965.500 1238.330 979.802 C 1249.149 987.668, 1258 994.586, 1258 995.174 C 1258 995.763, 1254.817 1005.878, 1250.927 1017.652 C 1247.036 1029.427, 1243.999 1039.430, 1244.177 1039.883 C 1244.355 1040.335, 1253.042 1034.471, 1263.482 1026.852 C 1273.922 1019.234, 1282.816 1013, 1283.247 1013 C 1283.678 1013, 1292.662 1019.288, 1303.210 1026.972 C 1313.758 1034.657, 1322.502 1040.832, 1322.639 1040.694 C 1322.777 1040.556, 1319.535 1030.133, 1315.434 1017.532 C 1311.334 1004.931, 1308.321 994.313, 1308.739 993.937 C 1309.158 993.561, 1317.707 987.311, 1327.739 980.049 C 1337.770 972.787, 1346.234 966.431, 1346.548 965.923 C 1346.890 965.369, 1337.380 965, 1322.741 965 L 1298.364 965 1290.750 941.750 C 1286.562 928.962, 1283.090 918.725, 1283.034 919" stroke="none" fill="#f8ec00" fill-rule="evenodd"/><path d="M 1248.500 8.622 C 1196.431 12.609, 1153.992 20.686, 1109.290 35.116 C 1040.412 57.350, 977.476 92.325, 919.500 140.587 C 902.835 154.460, 867.574 189.657, 853.158 206.809 C 805.906 263.031, 770.729 325.598, 748.033 393.789 C 707.835 514.566, 710.172 648.492, 754.556 767.621 C 826.330 960.264, 996.519 1098.469, 1199.500 1128.943 C 1230.478 1133.593, 1243.893 1134.471, 1283.500 1134.439 C 1329.171 1134.402, 1350.533 1132.482, 1390 1124.870 C 1577.726 1088.661, 1734.846 958.846, 1806.199 781 C 1855.387 658.401, 1859.585 518.845, 1817.852 393.678 C 1753.697 201.264, 1591.572 58.121, 1393 18.570 C 1375.361 15.056, 1354.356 11.927, 1335 9.930 C 1324.720 8.869, 1258.375 7.865, 1248.500 8.622 M 1541 109.135 C 1445.828 115.093, 1348.438 150.490, 1274.500 205.998 C 1209.459 254.826, 1180.743 300.686, 1169.305 374 C 1166.713 390.610, 1166.724 442.543, 1169.323 462.500 C 1175.371 508.936, 1188.332 556.988, 1206.012 598.527 C 1208.205 603.681, 1210 608.247, 1210 608.674 C 1210 609.101, 1206.737 606.266, 1202.750 602.376 C 1177.510 577.746, 1141.612 553.220, 1105.500 535.929 C 1057.471 512.933, 1006.174 499.330, 947 493.896 C 932.204 492.537, 884.051 492.469, 874.500 493.794 L 868.500 494.626 872.973 495.911 C 882.619 498.684, 915.550 510.580, 935.666 518.558 C 1038.848 559.482, 1112.960 608.947, 1151.705 662.752 C 1164.219 680.130, 1174.337 705.061, 1172.610 714.264 C 1170.224 726.986, 1152.535 735.417, 1119.462 739.598 C 1109.245 740.890, 1097.960 741.381, 1077.393 741.432 L 1049.286 741.500 1053.393 743.867 C 1063.820 749.878, 1119.064 777.560, 1132.500 783.507 C 1210.774 818.151, 1292.059 836.837, 1355 834.655 C 1387.351 833.533, 1409.866 826.728, 1428.654 812.393 C 1453.810 793.200, 1465.421 759.331, 1460.942 718.211 C 1457.783 689.208, 1449.909 664.055, 1431.764 625 C 1385.499 525.420, 1363.570 464.226, 1351.136 400 C 1345.449 370.628, 1344.500 360.259, 1344.500 327.500 C 1344.500 294.622, 1345.378 286.021, 1350.980 264 C 1360.182 227.825, 1380.745 199.432, 1417.061 172.755 C 1449.284 149.085, 1497.806 127.340, 1547 114.525 C 1554.975 112.448, 1563.525 110.177, 1566 109.478 L 1570.500 108.208 1562.500 108.249 C 1558.100 108.271, 1548.425 108.670, 1541 109.135 M 883.249 814.206 C 884.323 817.006, 895.114 860.220, 894.804 860.482 C 894.637 860.623, 885.950 866.040, 875.500 872.520 C 853.027 886.453, 852.322 887, 856.805 887 C 860.727 887, 902.353 889.993, 902.558 890.290 C 902.638 890.405, 905.309 900.999, 908.492 913.832 C 912.164 928.631, 914.588 936.676, 915.121 935.832 C 915.583 935.099, 919.636 925.275, 924.129 914 C 928.621 902.725, 932.596 893.157, 932.961 892.737 C 933.326 892.318, 943.414 892.683, 955.379 893.548 C 967.344 894.414, 978.079 894.982, 979.235 894.811 C 980.859 894.571, 977.124 890.983, 962.833 879.053 L 944.329 863.606 953.151 841.623 C 958.004 829.533, 961.776 819.442, 961.533 819.200 C 961.291 818.957, 952.045 824.463, 940.986 831.434 L 920.881 844.110 903.190 829.245 C 883.824 812.971, 882.348 811.858, 883.249 814.206 M 1665.420 828.132 C 1656.114 835.901, 1647.764 842.898, 1646.865 843.679 C 1645.415 844.941, 1642.907 843.635, 1624.615 832.097 C 1613.277 824.945, 1604 819.426, 1604 819.834 C 1604 820.242, 1607.991 830.520, 1612.869 842.674 L 1621.738 864.773 1603.224 880.136 C 1586.109 894.339, 1584.933 895.523, 1587.663 895.799 C 1589.288 895.964, 1600.032 895.415, 1611.540 894.581 C 1623.047 893.746, 1632.772 893.386, 1633.150 893.781 C 1633.529 894.177, 1637.754 904.308, 1642.540 916.296 C 1647.326 928.284, 1651.373 937.959, 1651.533 937.796 C 1651.694 937.633, 1654.380 927.375, 1657.503 915 C 1660.626 902.625, 1663.477 892.186, 1663.840 891.803 C 1664.410 891.200, 1703.010 888, 1709.711 888 C 1711.035 888, 1711.873 887.604, 1711.574 887.120 C 1711.275 886.636, 1705.736 882.945, 1699.265 878.916 C 1692.794 874.888, 1683.833 869.236, 1679.352 866.356 L 1671.204 861.120 1677.042 837.833 C 1680.253 825.026, 1682.758 814.425, 1682.610 814.276 C 1682.461 814.128, 1674.726 820.363, 1665.420 828.132 M 1086.479 908.649 C 1078.791 918.905, 1072.258 927.666, 1071.961 928.116 C 1071.665 928.566, 1061.104 925.373, 1048.493 921.019 C 1035.881 916.666, 1025.457 913.210, 1025.327 913.340 C 1025.197 913.470, 1031.339 922.495, 1038.977 933.396 L 1052.864 953.215 1038.481 972.358 C 1030.571 982.886, 1024.492 991.639, 1024.973 991.808 C 1025.454 991.977, 1035.582 989.126, 1047.479 985.472 C 1059.376 981.818, 1069.658 979.039, 1070.328 979.296 C 1070.998 979.553, 1077.611 988.438, 1085.023 999.040 L 1098.500 1018.317 1099.117 998.908 C 1099.456 988.234, 1099.794 977.216, 1099.867 974.425 L 1100 969.351 1122.250 962.568 C 1134.487 958.837, 1144.826 955.484, 1145.225 955.117 C 1145.624 954.750, 1135.619 950.900, 1122.991 946.562 L 1100.031 938.674 1100.675 914.337 C 1101.030 900.952, 1101.126 890, 1100.889 890 C 1100.652 890, 1094.168 898.392, 1086.479 908.649 M 1460.838 917.254 L 1461.176 941.510 1437.838 949.471 L 1414.500 957.431 1426.500 961.151 C 1433.100 963.197, 1443.787 966.500, 1450.250 968.491 L 1462 972.111 1462 996.056 C 1462 1009.225, 1462.358 1020, 1462.795 1020 C 1463.232 1020, 1469.621 1011.422, 1476.992 1000.938 C 1484.362 990.453, 1490.642 981.723, 1490.947 981.537 C 1491.251 981.351, 1501.601 984.291, 1513.947 988.069 C 1526.293 991.847, 1536.568 994.765, 1536.781 994.553 C 1536.993 994.340, 1531.035 986.016, 1523.541 976.055 C 1516.047 966.094, 1509.695 957.369, 1509.426 956.667 C 1509.156 955.964, 1515.049 946.701, 1522.520 936.081 C 1529.992 925.461, 1535.947 916.614, 1535.754 916.420 C 1535.560 916.227, 1525.606 919.428, 1513.632 923.534 C 1501.658 927.640, 1491.330 930.982, 1490.681 930.961 C 1490.031 930.939, 1483.200 922.407, 1475.500 912 C 1467.800 901.593, 1461.275 893.061, 1461 893.039 C 1460.725 893.017, 1460.652 903.914, 1460.838 917.254 M 1283.034 919 C 1282.978 919.275, 1279.615 929.625, 1275.560 942 L 1268.188 964.500 1243.425 965 L 1218.661 965.500 1238.330 979.802 C 1249.149 987.668, 1258 994.586, 1258 995.174 C 1258 995.763, 1254.817 1005.878, 1250.927 1017.652 C 1247.036 1029.427, 1243.999 1039.430, 1244.177 1039.883 C 1244.355 1040.335, 1253.042 1034.471, 1263.482 1026.852 C 1273.922 1019.234, 1282.816 1013, 1283.247 1013 C 1283.678 1013, 1292.662 1019.288, 1303.210 1026.972 C 1313.758 1034.657, 1322.502 1040.832, 1322.639 1040.694 C 1322.777 1040.556, 1319.535 1030.133, 1315.434 1017.532 C 1311.334 1004.931, 1308.321 994.313, 1308.739 993.937 C 1309.158 993.561, 1317.707 987.311, 1327.739 980.049 C 1337.770 972.787, 1346.234 966.431, 1346.548 965.923 C 1346.890 965.369, 1337.380 965, 1322.741 965 L 1298.364 965 1290.750 941.750 C 1286.562 928.962, 1283.090 918.725, 1283.034 919 M 8.206 1135.250 C 8.437 1135.938, 39.198 1229.987, 76.563 1344.248 L 144.500 1551.996 222.012 1551.998 L 299.524 1552 316.859 1501.250 C 346.545 1414.341, 395.462 1272.564, 412.173 1225 C 426.229 1184.994, 429.478 1176.798, 439.080 1157.123 C 445.086 1144.815, 450 1134.578, 450 1134.373 C 450 1134.168, 429.473 1134, 404.383 1134 L 358.767 1134 359.499 1136.250 C 359.902 1137.487, 360.455 1143.607, 360.727 1149.849 C 361.735 1172.960, 363.627 1166.246, 313.397 1317.829 C 288.368 1393.360, 267.425 1456.360, 266.856 1457.829 C 265.737 1460.719, 266.255 1462.310, 220.349 1315 C 178.914 1182.038, 175.883 1171.879, 175.303 1164 C 174.684 1155.585, 175.921 1148.304, 179.423 1139.750 L 181.777 1134 94.781 1134 C 25.628 1134, 7.872 1134.256, 8.206 1135.250 M 453.544 1278.814 C 455.390 1282.562, 458.048 1289.587, 459.450 1294.426 L 462 1303.224 462 1415.546 C 462 1509.874, 461.768 1528.961, 460.550 1534.685 C 459.292 1540.598, 456.908 1548.303, 454.496 1554.250 C 453.824 1555.905, 457.068 1556, 514.393 1556 C 556.842 1556, 575 1555.679, 575 1554.928 C 575 1554.339, 573.904 1551.976, 572.565 1549.678 C 571.226 1547.380, 568.965 1542.013, 567.541 1537.751 L 564.951 1530.002 565.226 1415.251 C 565.499 1301.105, 565.511 1300.471, 567.618 1294.978 C 570.170 1288.322, 574.566 1279.479, 577.128 1275.846 C 578.158 1274.386, 579 1272.923, 579 1272.596 C 579 1272.268, 550.017 1272, 514.594 1272 L 450.187 1272 453.544 1278.814 M 606 1272.481 C 606 1272.745, 607.637 1275.521, 609.639 1278.649 C 611.640 1281.777, 614.393 1287.074, 615.757 1290.419 C 620.914 1303.062, 620.928 1303.406, 620.965 1419.568 C 621.004 1538.827, 621.448 1530.185, 614.495 1545.441 C 612.573 1549.659, 611 1553.761, 611 1554.555 C 611 1555.785, 615.781 1556, 643.107 1556 C 673.286 1556, 675.172 1555.895, 674.512 1554.250 C 674.127 1553.287, 672.276 1547.855, 670.401 1542.178 L 666.990 1531.855 667.245 1434.353 L 667.500 1336.851 720.082 1446.175 L 772.663 1555.500 836.832 1555.757 L 901 1556.015 901 1429.475 C 901 1324.482, 901.234 1302.388, 902.372 1299.718 C 903.126 1297.948, 906.501 1292.953, 909.872 1288.618 C 915.238 1281.716, 916 1280.192, 916 1276.368 L 916 1272 881.500 1272 L 847 1272 847 1277.467 C 847 1282.370, 847.357 1283.290, 850.463 1286.397 C 852.368 1288.302, 854.179 1290.904, 854.488 1292.180 C 854.797 1293.456, 854.926 1337.226, 854.775 1389.448 L 854.500 1484.395 805.012 1378.198 L 755.524 1272 680.762 1272 C 639.643 1272, 606 1272.216, 606 1272.481" stroke="none" fill="#e4231e" fill-rule="evenodd"/><path d="M 993.500 1273.613 C 968.378 1278.815, 951.708 1298.078, 947.991 1326.197 C 947.241 1331.874, 947.007 1362.495, 947.252 1423 C 947.581 1504.358, 947.754 1511.984, 949.393 1517.500 C 954.220 1533.750, 964.761 1546.807, 978.554 1553.624 L 986.397 1557.500 1052.948 1557.500 C 1115.347 1557.500, 1119.857 1557.383, 1125.218 1555.623 C 1132.140 1553.351, 1138.602 1548.088, 1139.502 1543.989 C 1140.077 1541.371, 1143.225 1538, 1145.094 1538 C 1145.450 1538, 1146.027 1540.149, 1146.376 1542.775 C 1146.724 1545.401, 1148.105 1549.161, 1149.443 1551.132 C 1154.115 1558.006, 1154.073 1558, 1199.401 1558 L 1240 1558 1240 1553.362 C 1240 1549.324, 1239.471 1548.150, 1235.911 1544.288 C 1227.494 1535.157, 1227.889 1538.955, 1228.213 1470.273 C 1228.498 1409.881, 1228.514 1409.465, 1230.751 1403.940 C 1231.989 1400.882, 1234.543 1395.819, 1236.428 1392.690 L 1239.854 1387 1154.927 1387 L 1070 1387 1070 1414.655 C 1070 1441.145, 1070.075 1442.242, 1071.787 1440.693 C 1072.769 1439.804, 1075.807 1438.049, 1078.537 1436.793 C 1083.146 1434.673, 1085.091 1434.486, 1105.802 1434.171 L 1128.105 1433.832 1127.802 1465.666 C 1127.520 1495.396, 1127.368 1497.724, 1125.500 1500.895 C 1124.400 1502.763, 1122.229 1505.238, 1120.676 1506.395 C 1117.961 1508.418, 1116.757 1508.500, 1089.676 1508.500 C 1057.268 1508.500, 1056.347 1508.299, 1052.889 1500.482 C 1051.020 1496.257, 1050.963 1493.369, 1051.227 1416.303 L 1051.500 1336.500 1054.274 1331.500 C 1055.800 1328.750, 1058.692 1325.375, 1060.700 1324 L 1064.352 1321.500 1116.426 1321.222 C 1192.785 1320.815, 1203.940 1321.657, 1215.230 1328.680 C 1217.282 1329.956, 1219.194 1331, 1219.480 1331 C 1219.766 1331, 1220 1322.082, 1220 1311.182 C 1220 1288.470, 1218.910 1282.710, 1213.606 1277.406 C 1211.846 1275.646, 1208.627 1273.712, 1206.453 1273.109 C 1203.695 1272.343, 1171.967 1272.034, 1101.500 1272.087 C 1017.386 1272.150, 999.330 1272.405, 993.500 1273.613 M 1264 1276.837 C 1264 1281, 1264.493 1282.243, 1267.341 1285.263 C 1274.272 1292.612, 1274 1287.189, 1274 1417.849 L 1274 1535.066 1271.599 1539.783 C 1270.278 1542.377, 1268.028 1545.591, 1266.599 1546.924 C 1264.575 1548.813, 1264 1550.305, 1264 1553.674 L 1264 1558 1327.500 1558 C 1362.425 1558, 1390.997 1557.662, 1390.994 1557.250 C 1390.971 1554.139, 1388.228 1547.916, 1385.448 1544.668 C 1378.589 1536.655, 1378.605 1536.794, 1378.230 1483.723 L 1377.893 1435.946 1392.544 1436.223 L 1407.195 1436.500 1417.681 1461.500 C 1431.016 1493.293, 1452.212 1545.899, 1454.448 1552.750 L 1456.161 1558 1516.549 1558 C 1571.924 1558, 1576.885 1557.865, 1576.313 1556.372 C 1575.969 1555.477, 1563.207 1528.364, 1547.952 1496.122 L 1520.216 1437.500 1529.358 1436.907 C 1543.224 1436.008, 1549.686 1432.429, 1554.469 1423 C 1558.662 1414.733, 1559.001 1410.191, 1558.976 1362.701 C 1558.953 1317.663, 1558.944 1317.480, 1556.619 1311.828 C 1553.524 1304.303, 1546.259 1294.265, 1539.763 1288.538 C 1533.880 1283.352, 1521.589 1276.920, 1512.500 1274.271 C 1506.959 1272.656, 1497.231 1272.501, 1385.250 1272.238 L 1264 1271.954 1264 1276.837 M 1646.500 1273.636 C 1637.774 1275.472, 1623.330 1282.434, 1615.751 1288.458 C 1608.259 1294.413, 1598.918 1306.247, 1594.567 1315.296 C 1587.788 1329.395, 1587.999 1326.325, 1588.007 1410.460 C 1588.013 1469.745, 1588.316 1488.512, 1589.385 1495.631 C 1593.758 1524.748, 1608.124 1544.742, 1631.500 1554.247 L 1639.500 1557.500 1734.239 1557.774 C 1838.557 1558.077, 1835.708 1558.223, 1848.512 1551.920 C 1866.038 1543.292, 1878.534 1523.380, 1881.926 1498.678 C 1882.618 1493.639, 1882.994 1462.682, 1882.983 1411.678 C 1882.963 1322.283, 1883.147 1324.787, 1875.436 1309.164 C 1866.890 1291.852, 1850.685 1278.907, 1831.377 1273.968 C 1824.004 1272.083, 1820.100 1272.003, 1738.590 1272.082 C 1667.720 1272.149, 1652.330 1272.409, 1646.500 1273.636 M 1917.021 1275.750 C 1917.048 1280.618, 1918.996 1289.276, 1922.590 1300.500 L 1925.471 1309.500 1926.012 1402.500 L 1926.552 1495.500 1929.172 1505.068 C 1936.411 1531.498, 1951.889 1549.558, 1972.855 1556.036 C 1978.971 1557.926, 1982.586 1558, 2068.556 1558 C 2129.498 1558, 2159.586 1557.651, 2163.201 1556.903 C 2172.971 1554.881, 2182.844 1549.359, 2190.565 1541.600 C 2198.863 1533.261, 2202.671 1526.935, 2207.192 1513.979 L 2210.500 1504.500 2211 1401 C 2211.496 1298.243, 2211.515 1297.468, 2213.614 1293 C 2214.777 1290.525, 2216.920 1287.404, 2218.375 1286.065 C 2221.288 1283.386, 2223.453 1277.003, 2222.484 1273.951 C 2221.886 1272.066, 2220.698 1272, 2187.433 1272 L 2153 1272 2153 1275.929 C 2153 1279.014, 2153.721 1280.622, 2156.361 1283.421 C 2158.254 1285.429, 2160.546 1289.498, 2161.611 1292.742 C 2163.412 1298.231, 2163.500 1303.131, 2163.500 1397.500 C 2163.500 1503.065, 2163.543 1502.106, 2158.701 1505.497 C 2156.852 1506.792, 2148.619 1507, 2099.228 1507 C 2036.441 1507, 2037.526 1507.099, 2035.054 1501.131 C 2034.102 1498.833, 2033.933 1476.887, 2034.298 1403.334 C 2034.805 1301.257, 2035.124 1294.314, 2039.602 1287.853 C 2041.987 1284.411, 2045 1276.312, 2045 1273.341 C 2045 1272.234, 2033.851 1272, 1981 1272 L 1917 1272 1917.021 1275.750 M 2258.807 1273.078 C 2257.800 1276.099, 2259.440 1281.049, 2262.532 1284.327 C 2264.367 1286.273, 2266.453 1289.583, 2267.167 1291.683 C 2268.197 1294.709, 2268.525 1320.228, 2268.753 1414.840 L 2269.040 1534.179 2264.020 1543.463 C 2261.259 1548.570, 2259 1553.929, 2259 1555.374 L 2259 1558 2323.500 1558 C 2358.975 1558, 2388 1557.792, 2388 1557.538 C 2388 1554.838, 2382.897 1544.759, 2379.865 1541.470 C 2374.992 1536.182, 2374.259 1532.562, 2372.990 1507.500 C 2371.875 1485.493, 2371.751 1468.718, 2372.648 1461.250 L 2373.279 1456 2444.050 1456 C 2523.510 1456, 2520.789 1456.229, 2532.356 1448.552 C 2542.118 1442.072, 2548.800 1433.228, 2553.175 1421 C 2555.490 1414.529, 2555.500 1414.278, 2555.500 1364.981 L 2555.500 1315.461 2552.149 1308.653 C 2544.551 1293.215, 2526.644 1280.476, 2503.871 1274.307 C 2498.038 1272.727, 2487.441 1272.554, 2378.344 1272.260 C 2289.773 1272.021, 2259.090 1272.231, 2258.807 1273.078 M 1391.250 1321.720 L 1376 1322.052 1376 1355.093 L 1376 1388.134 1412.250 1387.817 C 1440.110 1387.573, 1449.040 1387.192, 1450.835 1386.170 C 1455.395 1383.571, 1456 1379.881, 1456 1354.680 C 1456 1331.974, 1455.934 1331.197, 1453.713 1327.898 C 1449.725 1321.974, 1447.718 1321.506, 1426 1321.444 C 1415.275 1321.413, 1399.638 1321.537, 1391.250 1321.720 M 1712.500 1321.891 C 1707.255 1322.850, 1703.230 1325.068, 1699.301 1329.165 C 1692.726 1336.019, 1693 1332.321, 1693 1414.102 C 1693 1467.494, 1693.325 1489.353, 1694.161 1492.142 C 1695.724 1497.360, 1701.044 1503.359, 1706.414 1505.958 C 1710.634 1508.001, 1711.979 1508.080, 1737.743 1507.796 L 1764.663 1507.500 1769.555 1504.474 C 1772.584 1502.599, 1775.599 1499.583, 1777.474 1496.552 L 1780.500 1491.657 1780.500 1415.078 L 1780.500 1338.500 1778.294 1334.376 C 1777.080 1332.107, 1774.605 1329.002, 1772.794 1327.474 C 1766.212 1321.924, 1764.407 1321.593, 1739.500 1321.368 C 1726.850 1321.253, 1714.700 1321.488, 1712.500 1321.891 M 2372 1366 L 2372 1410 2404.250 1409.978 C 2433.465 1409.958, 2436.876 1409.782, 2440.500 1408.110 C 2445.128 1405.974, 2448.417 1402.688, 2449.933 1398.685 C 2450.602 1396.920, 2451 1384.731, 2451 1366 C 2451 1347.269, 2450.602 1335.080, 2449.933 1333.315 C 2448.417 1329.312, 2445.128 1326.026, 2440.500 1323.890 C 2436.876 1322.218, 2433.465 1322.042, 2404.250 1322.022 L 2372 1322 2372 1366" stroke="none" fill="#95122a" fill-rule="evenodd"/></svg>