<?xml version="1.0" standalone="no"?>
<!DOCTYPE svg PUBLIC "-//W3C//DTD SVG 20010904//EN"
 "http://www.w3.org/TR/2001/REC-SVG-20010904/DTD/svg10.dtd">
<svg version="1.0" xmlns="http://www.w3.org/2000/svg"
 width="2135.000000pt" height="2042.000000pt" viewBox="0 0 2135.000000 2042.000000"
 preserveAspectRatio="xMidYMid meet">

<g transform="translate(0.000000,2042.000000) scale(0.100000,-0.100000)"
fill="#000000" stroke="none">
<path d="M8515 16736 l-1980 -1143 -3 -2292 c-1 -1260 0 -2291 2 -2291 2 0
858 493 1902 1096 1045 603 1938 1119 1985 1145 l86 49 1967 -1135 c1082 -625
1973 -1138 1981 -1142 13 -4 15 273 13 2282 l-3 2288 -1980 1143 c-1089 629
-1982 1144 -1985 1144 -3 0 -896 -515 -1985 -1144z"/>
<path d="M7862 9578 l3 -1483 755 1 c819 2 963 8 1107 50 291 84 494 315 559
634 24 121 16 308 -19 413 -67 207 -212 357 -429 445 -37 15 -68 29 -68 32 0
3 24 20 54 38 331 197 436 648 229 981 -111 177 -276 292 -484 335 -135 28
-364 36 -1042 36 l-667 0 2 -1482z m1515 959 c81 -27 133 -73 173 -151 31 -62
35 -77 35 -150 0 -112 -24 -176 -89 -242 -60 -59 -131 -90 -240 -104 -39 -5
-236 -10 -438 -10 l-368 0 0 340 0 341 438 -3 c383 -3 443 -6 489 -21z m-245
-1157 c277 -13 360 -36 452 -120 82 -76 122 -206 105 -342 -21 -165 -129 -275
-305 -310 -39 -7 -209 -12 -494 -12 l-435 -1 -3 385 c-1 212 0 391 3 397 6 16
381 17 677 3z"/>
<path d="M10810 9575 l0 -1485 293 2 292 3 3 450 3 450 237 243 237 244 400
-696 400 -696 379 0 c313 0 377 2 373 13 -3 8 -262 416 -576 908 l-571 893 73
76 c161 164 1017 1069 1017 1074 0 3 -177 6 -393 6 l-393 0 -589 -654 -590
-653 -3 653 -2 654 -295 0 -295 0 0 -1485z"/>
<path d="M14470 8717 l0 -2294 -1980 -1143 c-1089 -629 -1977 -1146 -1973
-1150 25 -21 3940 -2274 3953 -2274 8 -1 905 512 1992 1139 l1977 1140 -2
2293 -2 2294 -1965 1134 c-1081 625 -1973 1140 -1982 1145 -17 9 -18 -102 -18
-2284z"/>
<path d="M4542 9858 l-1972 -1140 2 -2295 3 -2294 1975 -1141 c1086 -627 1980
-1141 1985 -1141 15 1 3956 2279 3957 2288 0 4 -891 522 -1979 1150 l-1978
1142 -3 2287 c-1 1257 -5 2286 -10 2285 -4 -1 -895 -514 -1980 -1141z"/>
<path d="M11475 7580 c-185 -38 -308 -150 -371 -337 -35 -102 -44 -289 -20
-403 50 -235 219 -387 452 -407 146 -12 291 36 380 125 49 49 131 200 121 225
-4 10 -173 69 -206 72 -2 0 -10 -18 -17 -40 -40 -118 -107 -179 -213 -192
-116 -14 -225 56 -272 173 -21 53 -23 75 -24 214 0 172 13 229 68 295 64 78
181 113 282 85 59 -17 129 -79 150 -133 l16 -43 110 25 c124 29 119 20 68 128
-67 139 -224 225 -409 222 -41 -1 -93 -5 -115 -9z"/>
<path d="M7650 7480 l0 -90 165 0 165 0 0 -470 0 -470 110 0 110 0 2 468 3
467 168 3 167 2 0 90 0 90 -445 0 -445 0 0 -90z"/>
<path d="M8690 7011 l0 -561 110 0 110 0 0 215 0 215 168 0 c183 0 254 12 319
54 114 73 170 216 143 367 -21 115 -71 183 -168 231 l-67 33 -307 3 -308 4 0
-561z m533 356 c94 -40 125 -160 60 -237 -45 -54 -74 -63 -230 -68 l-143 -5 0
168 0 168 140 -6 c82 -4 153 -12 173 -20z"/>
<path d="M9970 7010 l0 -560 115 0 115 0 0 245 0 245 225 0 225 0 0 -245 0
-245 110 0 110 0 0 560 0 560 -110 0 -110 0 0 -220 0 -220 -225 0 -225 0 0
220 0 220 -115 0 -115 0 0 -560z"/>
<path d="M12240 7010 l0 -560 105 0 105 0 1 438 1 437 110 -437 110 -438 108
0 107 0 81 318 c45 174 93 367 108 427 15 61 31 114 35 119 5 6 9 -182 9 -427
l0 -437 100 0 100 0 0 560 0 560 -167 0 -168 0 -100 -380 c-54 -209 -102 -377
-105 -372 -4 4 -51 175 -105 380 l-99 372 -168 0 -168 0 0 -560z"/>
<path d="M9530 6555 l0 -105 105 0 105 0 0 105 0 105 -105 0 -105 0 0 -105z"/>
</g>
</svg>
