<svg xmlns="http://www.w3.org/2000/svg" width="2135" height="2042" viewBox="0 0 2135 2042" version="1.1"><path d="M 830.267 331.841 L 611.035 458.500 610.767 687.813 L 610.500 917.126 412.500 1031.448 L 214.500 1145.770 214.248 1399.220 L 213.996 1652.671 433.390 1779.335 C 554.057 1849.001, 653.073 1906, 653.425 1906 C 653.778 1906, 742.905 1854.707, 851.486 1792.016 C 960.067 1729.324, 1049.299 1677.912, 1049.780 1677.766 C 1050.261 1677.620, 1139.300 1728.670, 1247.644 1791.211 C 1355.988 1853.752, 1445.310 1905.182, 1446.138 1905.499 C 1447.048 1905.849, 1534.242 1856.079, 1666.572 1779.677 L 1885.500 1653.276 1885.712 1399.388 L 1885.924 1145.500 1687.462 1031.012 L 1489 916.524 1489 687.397 L 1489 458.269 1269.664 331.635 C 1149.029 261.986, 1050.142 205.041, 1049.914 205.091 C 1049.686 205.141, 950.845 262.178, 830.267 331.841 M 851 368.363 L 653.500 482.525 653 711.957 L 652.500 941.388 454.250 1055.850 L 256 1170.311 256.009 1399.405 L 256.017 1628.500 454.228 1742.917 C 563.244 1805.846, 652.902 1857.328, 653.469 1857.323 C 654.036 1857.317, 743.462 1805.942, 852.194 1743.156 C 960.925 1680.370, 1050.080 1629, 1050.315 1629 C 1050.550 1629, 1139.982 1680.523, 1249.053 1743.496 C 1430.924 1848.499, 1447.536 1857.880, 1449.432 1856.653 C 1450.570 1855.917, 1539.813 1804.333, 1647.752 1742.023 L 1844.004 1628.733 1843.752 1399.197 L 1843.500 1169.662 1645.250 1055.201 L 1447 940.740 1446.995 711.620 L 1446.990 482.500 1249.086 368.250 C 1140.239 305.413, 1050.579 254.045, 1049.841 254.101 C 1049.104 254.156, 959.625 305.574, 851 368.363 M 854.333 825.399 C 746.473 887.672, 657.048 939.394, 655.610 940.336 L 652.996 942.049 653.248 1170.584 L 653.500 1399.119 851 1513.208 C 959.625 1575.958, 1049.206 1627.343, 1050.069 1627.399 C 1050.931 1627.454, 1140.579 1576.200, 1249.286 1513.500 L 1446.934 1399.500 1446.717 1170.194 L 1446.500 940.888 1252.500 828.886 C 1145.800 767.284, 1056.687 715.824, 1054.471 714.529 L 1050.443 712.175 854.333 825.399 M 786 1084.552 L 786 1233.245 866.250 1232.681 C 912.976 1232.353, 950.260 1231.671, 955.500 1231.049 C 991.099 1226.823, 1014.773 1207.793, 1025.912 1174.449 C 1032.888 1153.567, 1031.789 1130.417, 1022.996 1112.993 C 1014.726 1096.607, 999.651 1083.424, 982.250 1077.360 C 979.362 1076.354, 977 1075.299, 977.001 1075.015 C 977.002 1074.732, 979.364 1073.192, 982.251 1071.592 C 985.138 1069.993, 991.110 1065.043, 995.523 1060.592 C 1009.227 1046.770, 1016.017 1030.340, 1015.983 1011.090 C 1015.950 993.130, 1011.230 979.712, 999.952 965.520 C 988.197 950.728, 972.734 942.047, 951.500 938.321 C 943.977 937.001, 929.655 936.669, 864.250 936.301 L 786 935.860 786 1084.552 M 1081 1084.500 L 1081 1233 1110.500 1233 L 1140 1233 1140.045 1187.750 L 1140.091 1142.500 1163.795 1118.226 L 1187.500 1093.952 1227.418 1163.476 L 1267.336 1233 1305.783 1233 L 1344.230 1233 1342.421 1230.250 C 1321.402 1198.289, 1228.994 1052.349, 1229.206 1051.450 C 1229.468 1050.338, 1264.292 1013.366, 1319.344 955.750 L 1338.216 936 1298.289 936 L 1258.362 936 1199.431 1001.318 L 1140.500 1066.636 1140.243 1001.318 L 1139.986 936 1110.493 936 L 1081 936 1081 1084.500 M 845 1020.052 L 845 1054.251 886.250 1053.719 C 929.653 1053.159, 932.466 1052.879, 941.616 1048.200 C 947.805 1045.036, 951.293 1041.715, 954.377 1036.049 C 961.916 1022.198, 958.413 1001.520, 947.181 993.561 C 937.499 986.701, 937.165 986.659, 888.750 986.235 L 845 985.852 845 1020.052 M 845 1142.903 L 845 1182 888.250 1181.992 C 912.966 1181.988, 934.285 1181.544, 938 1180.956 C 950.920 1178.912, 960.827 1171.865, 965.852 1161.148 C 968.236 1156.063, 968.500 1154.351, 968.500 1143.979 C 968.500 1132.972, 968.353 1132.160, 965.208 1125.771 C 960.044 1115.281, 952.129 1109.550, 938.385 1106.348 C 932.829 1105.054, 923.150 1104.654, 888.250 1104.275 L 845 1103.806 845 1142.903 M 1144.459 1284.395 C 1136.521 1286.323, 1130.258 1289.827, 1123.575 1296.079 C 1117.068 1302.166, 1113.288 1308.117, 1109.838 1317.707 C 1106.571 1326.786, 1106.047 1349.795, 1108.853 1360.892 C 1111.429 1371.077, 1115.651 1378.630, 1122.581 1385.451 C 1131.700 1394.424, 1143.814 1399.015, 1158.299 1398.985 C 1178.548 1398.944, 1192.652 1390.503, 1200.501 1373.730 C 1205.767 1362.477, 1206.029 1363.103, 1194.500 1359.374 C 1189 1357.594, 1184.020 1356.107, 1183.433 1356.069 C 1182.846 1356.031, 1181.612 1358.389, 1180.692 1361.310 C 1174.654 1380.464, 1151.908 1385.701, 1138.675 1370.984 C 1132.383 1363.985, 1130.540 1357.090, 1130.526 1340.500 C 1130.513 1324.315, 1132.215 1317.892, 1138.255 1311.339 C 1145.429 1303.556, 1154.299 1300.673, 1163.946 1302.987 C 1171.140 1304.713, 1176.278 1308.825, 1179.521 1315.453 C 1181.476 1319.450, 1182.724 1320.929, 1183.880 1320.620 C 1184.771 1320.383, 1189.697 1319.187, 1194.826 1317.964 C 1203.971 1315.782, 1204.139 1315.689, 1203.504 1313.160 C 1202.155 1307.784, 1197.353 1299.511, 1193.132 1295.290 C 1188.235 1290.393, 1181.009 1286.370, 1173.500 1284.361 C 1167.362 1282.719, 1151.279 1282.738, 1144.459 1284.395 M 765 1294.500 L 765 1304 781.500 1304 L 798 1304 798 1350.500 L 798 1397 809.500 1397 L 821 1397 821 1350.500 L 821 1304 837.500 1304 L 854 1304 854 1294.500 L 854 1285 809.500 1285 L 765 1285 765 1294.500 M 869 1340.936 L 869 1397 880 1397 L 891 1397 891 1376 L 891 1355 902.250 1354.983 C 908.438 1354.973, 917.715 1354.521, 922.868 1353.979 C 938.043 1352.380, 946.606 1346.655, 952.256 1334.330 C 955.427 1327.412, 955.464 1310.667, 952.324 1303.824 C 949.297 1297.230, 942.850 1290.632, 936.727 1287.863 C 931.647 1285.567, 930.620 1285.491, 900.250 1285.186 L 869 1284.871 869 1340.936 M 997 1341 L 997 1397 1008.500 1397 L 1020 1397 1020 1372.500 L 1020 1348 1042 1348 L 1064 1348 1064 1372.500 L 1064 1397 1075.500 1397 L 1087 1397 1087 1341 L 1087 1285 1075.500 1285 L 1064 1285 1064 1307 L 1064 1329 1042 1329 L 1020 1329 1020 1307 L 1020 1285 1008.500 1285 L 997 1285 997 1341 M 1224 1341 L 1224 1397 1234.489 1397 L 1244.979 1397 1245.239 1354.250 L 1245.500 1311.500 1255.307 1350.500 C 1260.701 1371.950, 1265.560 1391.202, 1266.104 1393.282 L 1267.094 1397.065 1278.239 1396.782 L 1289.383 1396.500 1300.100 1354 L 1310.816 1311.500 1310.908 1354.250 L 1311 1397 1321.500 1397 L 1332 1397 1332 1341 L 1332 1285 1315.115 1285 L 1298.229 1285 1296.278 1292.250 C 1295.204 1296.237, 1290.766 1313.082, 1286.415 1329.682 C 1282.064 1346.283, 1278.218 1359.333, 1277.869 1358.682 C 1277.520 1358.032, 1273.551 1343.550, 1269.049 1326.500 C 1264.548 1309.450, 1260.188 1293.138, 1259.361 1290.250 L 1257.858 1285 1240.929 1285 L 1224 1285 1224 1341 M 891.225 1319.750 L 891.500 1335.500 904.782 1335.283 C 920.235 1335.030, 925.578 1333.381, 928.970 1327.818 C 931.678 1323.375, 931.681 1315.630, 928.976 1311.192 C 925.503 1305.496, 920.604 1304.047, 904.725 1304.022 L 890.949 1304 891.225 1319.750 M 953 1386.500 L 953 1397 964 1397 L 975 1397 975 1386.500 L 975 1376 964 1376 L 953 1376 953 1386.500" stroke="none" fill="#f7f5f6" fill-rule="evenodd"/><path d="M 1049.754 483.333 C 1049.585 635.708, 1049.836 712.678, 1050.500 712.701 C 1051.209 712.726, 1380.905 902.696, 1442.750 938.715 L 1447 941.190 1446.995 711.845 L 1446.990 482.500 1249.086 368.250 C 1140.239 305.413, 1050.918 254, 1050.595 254 C 1050.273 254, 1049.894 357.200, 1049.754 483.333 M 652.998 711.944 L 652.500 941.388 454.250 1055.850 L 256 1170.311 256 1399.778 C 256 1583.224, 256.251 1629.042, 257.250 1628.234 C 259.186 1626.668, 652.035 1400, 652.812 1400 C 653.191 1400, 653.386 1297.111, 653.246 1171.358 C 653.106 1045.604, 653.331 942.217, 653.746 941.608 C 654.161 940.998, 654.274 837.450, 653.998 711.500 L 653.496 482.500 652.998 711.944 M 786.247 1084.250 L 786 1233 853.750 1232.757 L 921.500 1232.514 854.253 1232.250 L 787.007 1231.986 786.750 1083.743 L 786.493 935.500 786.247 1084.250 M 1139.472 1001.500 C 1139.472 1037.800, 1139.597 1052.505, 1139.750 1034.177 C 1139.902 1015.850, 1139.902 986.150, 1139.749 968.177 C 1139.597 950.205, 1139.472 965.200, 1139.472 1001.500 M 862.250 985.748 C 871.462 985.913, 886.538 985.913, 895.750 985.748 C 904.962 985.583, 897.425 985.448, 879 985.448 C 860.575 985.448, 853.038 985.583, 862.250 985.748 M 861.186 1103.748 C 870.363 1103.913, 885.663 1103.913, 895.186 1103.749 C 904.709 1103.584, 897.200 1103.449, 878.500 1103.449 C 859.800 1103.449, 852.009 1103.583, 861.186 1103.748 M 1139 1187.985 L 1139 1231.970 1109.750 1232.251 L 1080.500 1232.531 1110.250 1232.766 L 1140 1233 1140 1188.500 C 1140 1164.025, 1139.775 1144, 1139.500 1144 C 1139.225 1144, 1139 1163.793, 1139 1187.985 M 865.317 1182.749 C 876.766 1182.910, 895.216 1182.909, 906.317 1182.749 C 917.418 1182.588, 908.050 1182.456, 885.500 1182.457 C 862.950 1182.457, 853.868 1182.589, 865.317 1182.749 M 1266.861 1232.262 C 1267.281 1232.681, 1284.921 1232.906, 1306.062 1232.761 L 1344.500 1232.499 1305.299 1231.999 C 1283.739 1231.725, 1266.442 1231.843, 1266.861 1232.262 M 1144.459 1284.395 C 1136.521 1286.323, 1130.258 1289.827, 1123.575 1296.079 C 1117.068 1302.166, 1113.288 1308.117, 1109.838 1317.707 C 1106.571 1326.786, 1106.047 1349.795, 1108.853 1360.892 C 1111.429 1371.077, 1115.651 1378.630, 1122.581 1385.451 C 1131.700 1394.424, 1143.814 1399.015, 1158.299 1398.985 C 1178.548 1398.944, 1192.652 1390.503, 1200.501 1373.730 C 1205.767 1362.477, 1206.029 1363.103, 1194.500 1359.374 C 1189 1357.594, 1184.020 1356.107, 1183.433 1356.069 C 1182.846 1356.031, 1181.612 1358.389, 1180.692 1361.310 C 1174.654 1380.464, 1151.908 1385.701, 1138.675 1370.984 C 1132.383 1363.985, 1130.540 1357.090, 1130.526 1340.500 C 1130.513 1324.315, 1132.215 1317.892, 1138.255 1311.339 C 1145.429 1303.556, 1154.299 1300.673, 1163.946 1302.987 C 1171.140 1304.713, 1176.278 1308.825, 1179.521 1315.453 C 1181.476 1319.450, 1182.724 1320.929, 1183.880 1320.620 C 1184.771 1320.383, 1189.697 1319.187, 1194.826 1317.964 C 1203.971 1315.782, 1204.139 1315.689, 1203.504 1313.160 C 1202.155 1307.784, 1197.353 1299.511, 1193.132 1295.290 C 1188.235 1290.393, 1181.009 1286.370, 1173.500 1284.361 C 1167.362 1282.719, 1151.279 1282.738, 1144.459 1284.395 M 765 1294.500 L 765 1304 781.500 1304 L 798 1304 798 1350.500 L 798 1397 809.500 1397 L 821 1397 821 1350.500 L 821 1304 837.500 1304 L 854 1304 854 1294.500 L 854 1285 809.500 1285 L 765 1285 765 1294.500 M 869 1340.936 L 869 1397 880 1397 L 891 1397 891 1376 L 891 1355 902.250 1354.983 C 908.438 1354.973, 917.715 1354.521, 922.868 1353.979 C 938.043 1352.380, 946.606 1346.655, 952.256 1334.330 C 955.427 1327.412, 955.464 1310.667, 952.324 1303.824 C 949.297 1297.230, 942.850 1290.632, 936.727 1287.863 C 931.647 1285.567, 930.620 1285.491, 900.250 1285.186 L 869 1284.871 869 1340.936 M 997 1341 L 997 1397 1008.500 1397 L 1020 1397 1020 1372.500 L 1020 1348 1042 1348 L 1064 1348 1064 1372.500 L 1064 1397 1075.500 1397 L 1087 1397 1087 1341 L 1087 1285 1075.500 1285 L 1064 1285 1064 1307 L 1064 1329 1042 1329 L 1020 1329 1020 1307 L 1020 1285 1008.500 1285 L 997 1285 997 1341 M 1224 1341 L 1224 1397 1234.489 1397 L 1244.979 1397 1245.239 1354.250 L 1245.500 1311.500 1255.307 1350.500 C 1260.701 1371.950, 1265.560 1391.202, 1266.104 1393.282 L 1267.094 1397.065 1278.239 1396.782 L 1289.383 1396.500 1300.100 1354 L 1310.816 1311.500 1310.908 1354.250 L 1311 1397 1321.500 1397 L 1332 1397 1332 1341 L 1332 1285 1315.115 1285 L 1298.229 1285 1296.278 1292.250 C 1295.204 1296.237, 1290.766 1313.082, 1286.415 1329.682 C 1282.064 1346.283, 1278.218 1359.333, 1277.869 1358.682 C 1277.520 1358.032, 1273.551 1343.550, 1269.049 1326.500 C 1264.548 1309.450, 1260.188 1293.138, 1259.361 1290.250 L 1257.858 1285 1240.929 1285 L 1224 1285 1224 1341 M 891.225 1319.750 L 891.500 1335.500 904.782 1335.283 C 920.235 1335.030, 925.578 1333.381, 928.970 1327.818 C 931.678 1323.375, 931.681 1315.630, 928.976 1311.192 C 925.503 1305.496, 920.604 1304.047, 904.725 1304.022 L 890.949 1304 891.225 1319.750 M 953 1386.500 L 953 1397 964 1397 L 975 1397 975 1386.500 L 975 1376 964 1376 L 953 1376 953 1386.500 M 1248.942 1513.636 C 1139.799 1576.645, 1050.401 1628.290, 1050.280 1628.402 C 1049.998 1628.664, 1445.133 1856.766, 1446.596 1857.186 C 1448.204 1857.647, 1844.227 1628.815, 1843.293 1627.964 C 1842.857 1627.568, 1754.975 1576.743, 1648 1515.019 C 1541.025 1453.296, 1452.124 1401.958, 1450.442 1400.935 L 1447.384 1399.074 1248.942 1513.636" stroke="none" fill="#1488db" fill-rule="evenodd"/><path d="M 851.773 368.391 L 654.046 482.500 654.023 711.357 C 654.005 894.043, 654.252 940.116, 655.250 939.728 C 657.173 938.979, 1048.391 713.009, 1049.249 712.151 C 1049.665 711.735, 1049.891 608.545, 1049.752 482.839 L 1049.500 254.282 851.773 368.391 M 787 1083.968 L 787 1232.158 870.750 1231.711 C 943.752 1231.321, 955.586 1231.049, 962.965 1229.592 C 980.975 1226.035, 991.757 1220.801, 1003.305 1210.011 C 1019.365 1195.006, 1028.509 1174.548, 1029.694 1150.977 C 1030.464 1135.667, 1028.549 1125.781, 1022.340 1113 C 1018.456 1105.004, 1016.362 1102.148, 1009.113 1094.959 C 1002.018 1087.924, 998.826 1085.597, 991 1081.755 C 985.775 1079.190, 980.263 1076.797, 978.750 1076.437 C 977.237 1076.078, 976.013 1075.494, 976.030 1075.142 C 976.046 1074.789, 978.733 1072.969, 982 1071.098 C 1011.666 1054.112, 1024.222 1014.275, 1009.969 982.363 C 1002.103 964.751, 987.357 950.509, 970 943.760 C 953.615 937.388, 946.604 936.905, 861.750 936.306 L 787 935.778 787 1083.968 M 1081 1084 L 1081 1232 1110 1232 L 1139 1232 1139 1187.890 L 1139 1143.779 1149.712 1132.640 C 1177.655 1103.580, 1187.360 1093.967, 1188.013 1094.702 C 1188.403 1095.141, 1206.379 1126.213, 1227.959 1163.750 L 1267.196 1232 1305.110 1232 L 1343.025 1232 1340.653 1228.250 C 1339.348 1226.188, 1313.436 1185.620, 1283.069 1138.101 L 1227.858 1051.701 1233.272 1046.101 C 1240.709 1038.408, 1331.916 942.038, 1334.924 938.694 L 1337.349 936 1297.924 936.030 L 1258.500 936.060 1199.500 1001.525 C 1167.050 1037.531, 1140.162 1066.992, 1139.750 1066.995 C 1139.338 1066.998, 1139 1037.525, 1139 1001.500 L 1139 936 1110 936 L 1081 936 1081 1084 M 1447.248 1170.170 L 1447.500 1399.275 1643 1512.197 C 1750.525 1574.304, 1839.737 1625.779, 1841.250 1626.585 L 1844 1628.051 1844 1399.196 L 1844 1170.340 1656.250 1061.967 C 1552.987 1002.361, 1463.662 950.775, 1457.748 947.329 L 1446.996 941.065 1447.248 1170.170 M 845.667 985.667 C 845.300 986.033, 845 1001.558, 845 1020.167 L 845 1054 883.250 1053.992 C 904.992 1053.988, 924.305 1053.534, 928 1052.940 C 941.035 1050.844, 950.764 1044.254, 955.720 1034.161 C 958.168 1029.177, 958.500 1027.364, 958.500 1019 C 958.500 1010.611, 958.171 1008.831, 955.689 1003.776 C 949.849 991.884, 940.764 987.280, 920.500 985.944 C 905.065 984.926, 846.624 984.710, 845.667 985.667 M 845 1143.100 L 845 1183.200 890.750 1182.731 C 938.725 1182.240, 940.678 1182.067, 950.543 1177.431 C 956.881 1174.452, 964.360 1166.295, 967.011 1159.469 C 968.854 1154.724, 969.329 1151.552, 969.329 1144 C 969.329 1132.247, 966.947 1125.381, 960.304 1117.993 C 949.072 1105.500, 935.110 1103.026, 875.750 1103.009 L 845 1103 845 1143.100 M 454.821 1513.827 C 346.647 1576.347, 257.891 1627.757, 257.584 1628.070 C 256.740 1628.933, 651.199 1856.462, 653.500 1856.439 C 654.955 1856.425, 1027.996 1641.986, 1047.235 1630.105 L 1049.971 1628.416 852.159 1514.208 C 743.363 1451.394, 653.707 1400.035, 652.924 1400.077 C 652.141 1400.120, 562.994 1451.308, 454.821 1513.827" stroke="none" fill="#032b91" fill-rule="evenodd"/></svg>