<?xml version="1.0" standalone="no"?>
<!DOCTYPE svg PUBLIC "-//W3C//DTD SVG 20010904//EN"
 "http://www.w3.org/TR/2001/REC-SVG-20010904/DTD/svg10.dtd">
<svg version="1.0" xmlns="http://www.w3.org/2000/svg"
 width="1500.000000pt" height="567.000000pt" viewBox="0 0 1500.000000 567.000000"
 preserveAspectRatio="xMidYMid meet">

<g transform="translate(0.000000,567.000000) scale(0.100000,-0.100000)"
fill="#000000" stroke="none">
<path d="M3485 5199 c-82 -43 -161 -84 -175 -90 -31 -13 -1052 -522 -1100
-549 -19 -10 -224 -113 -455 -228 -231 -115 -442 -220 -470 -234 -27 -14 -71
-35 -96 -46 -25 -12 -52 -28 -59 -37 -11 -13 -12 -100 -6 -473 4 -251 10 -473
14 -492 7 -34 13 -38 246 -153 131 -65 240 -116 243 -113 6 5 6 5 -211 115
-129 65 -168 91 -136 91 5 0 44 -18 85 -40 41 -22 82 -40 90 -40 8 0 15 -4 15
-10 0 -5 6 -10 13 -10 7 0 37 -11 65 -25 29 -14 59 -25 67 -25 8 0 15 -4 15
-10 0 -5 11 -10 25 -10 13 0 28 -6 32 -12 25 -40 90 -48 138 -17 17 10 37 22
45 25 8 3 35 15 60 26 25 11 61 27 80 35 19 8 58 26 85 39 28 13 56 24 63 24
6 0 12 5 12 10 0 6 6 10 14 10 7 0 35 11 61 25 26 14 55 24 64 22 12 -4 11 -7
-6 -12 -13 -4 -23 -11 -23 -16 0 -5 -7 -9 -15 -9 -9 0 -33 -11 -55 -25 -22
-14 -43 -25 -47 -25 -9 0 -175 -82 -183 -90 -16 -17 -203 -100 -226 -101 l-29
0 31 -16 31 -15 485 241 c267 133 494 241 504 241 11 -1 30 -7 44 -15 14 -8
33 -14 43 -15 15 0 237 105 297 140 8 5 64 33 125 63 86 42 111 59 115 78 4
20 40 42 194 119 104 53 191 100 193 107 5 13 -51 43 -81 43 -12 0 -30 -6 -41
-14 -11 -7 -31 -17 -45 -21 -14 -4 -36 -16 -49 -26 -13 -11 -29 -19 -36 -19
-7 0 -41 -16 -75 -35 -34 -19 -73 -38 -86 -41 -13 -4 -28 -12 -32 -19 -12 -20
-78 -38 -100 -26 -16 8 -41 0 -127 -44 -60 -31 -114 -60 -120 -65 -7 -5 -15
-7 -19 -3 -3 4 -12 -1 -19 -10 -6 -10 -45 -31 -85 -47 -41 -16 -88 -40 -105
-52 -63 -46 -120 -63 -129 -39 -1 5 -21 17 -43 29 -191 95 -381 195 -405 212
-15 11 -33 20 -39 20 -6 0 -11 8 -11 19 0 15 155 96 746 390 410 204 751 371
758 371 7 0 110 -48 227 -106 118 -59 457 -227 754 -375 297 -148 549 -269
560 -269 11 0 110 46 220 102 110 55 225 112 255 127 215 103 494 248 495 256
0 9 -2503 1266 -2515 1263 -3 0 -72 -36 -155 -79z m-965 -2099 c-19 -13 -30
-13 -30 0 0 6 10 10 23 10 18 0 19 -2 7 -10z m-55 -30 c-3 -5 -12 -7 -20 -3
-21 7 -19 13 6 13 11 0 18 -4 14 -10z m-55 -14 c0 -3 -4 -8 -10 -11 -5 -3 -10
-1 -10 4 0 6 5 11 10 11 6 0 10 -2 10 -4z m-1200 -32 c0 -2 -9 -4 -20 -4 -11
0 -20 4 -20 9 0 5 9 7 20 4 11 -3 20 -7 20 -9z m1153 -1 c-7 -2 -19 -2 -25 0
-7 3 -2 5 12 5 14 0 19 -2 13 -5z m-1108 -23 c8 -13 -5 -13 -25 0 -13 8 -13
10 2 10 9 0 20 -4 23 -10z"/>
<path d="M6528 4024 c-11 -3 -18 -16 -19 -32 0 -26 -1 -26 -9 -4 -5 12 -11 22
-13 22 -2 0 -4 -558 -4 -1241 l-1 -1240 26 -10 c39 -15 2421 -5 2567 10 287
30 406 57 524 117 120 61 201 161 231 285 16 68 23 353 12 459 -25 229 -133
334 -422 410 -25 7 -56 16 -70 21 -14 4 -72 17 -130 29 -58 12 -112 23 -120
26 -27 10 10 21 90 28 106 8 303 60 379 98 145 74 201 221 167 433 -34 201
-121 316 -316 411 -101 50 -197 85 -270 99 -19 3 -62 12 -95 20 -33 8 -116 19
-185 25 -69 6 -163 16 -210 22 -87 10 -2098 22 -2132 12z m1649 -434 c199 -22
258 -121 219 -363 -20 -120 -40 -148 -121 -167 -59 -14 -298 -20 -327 -8 -17
7 -18 29 -18 271 0 145 3 267 7 270 9 10 145 8 240 -3z m-6 -954 c183 -19 205
-34 228 -161 13 -71 15 -382 2 -390 -5 -3 -12 -18 -16 -34 -11 -51 -49 -73
-170 -97 -50 -10 -236 -13 -259 -4 l-26 10 0 338 c0 186 3 342 7 345 10 10 84
8 234 -7z"/>
<path d="M10813 4023 c-15 -3 -23 -12 -23 -24 0 -11 -9 -29 -20 -41 -11 -12
-20 -32 -20 -45 0 -13 -4 -23 -8 -23 -7 0 -32 -104 -33 -140 0 -20 -22 -94
-29 -100 -16 -15 -32 -61 -26 -76 4 -10 0 -24 -9 -34 -9 -10 -15 -21 -14 -26
1 -5 -4 -22 -11 -39 -7 -16 -16 -43 -21 -60 -4 -16 -16 -55 -25 -85 -9 -30
-18 -66 -21 -80 -2 -14 -8 -34 -13 -45 -5 -11 -16 -47 -25 -80 -9 -33 -26 -87
-37 -120 -11 -33 -23 -76 -28 -95 -16 -70 -58 -218 -68 -236 -5 -11 -22 -68
-37 -129 -15 -60 -31 -114 -35 -120 -3 -5 -12 -37 -19 -70 -18 -84 -41 -167
-52 -187 -5 -10 -9 -26 -9 -37 0 -10 -7 -32 -15 -47 -8 -16 -15 -38 -15 -49 0
-11 -12 -51 -25 -90 -14 -38 -25 -82 -25 -97 0 -16 -4 -28 -9 -28 -6 0 -7 -15
-4 -34 3 -19 1 -36 -6 -40 -6 -4 -11 -17 -11 -29 0 -12 -9 -33 -20 -47 -11
-14 -20 -31 -20 -38 0 -7 -9 -31 -21 -54 -15 -30 -18 -43 -9 -52 17 -18 1463
-21 1478 -3 6 7 22 78 36 157 15 80 30 163 35 185 6 22 12 52 16 68 l5 27 257
-2 257 -3 13 -43 c7 -24 17 -74 22 -110 38 -253 43 -273 68 -283 14 -5 325 -9
734 -9 l709 0 0 21 c0 11 -22 87 -49 167 -27 81 -119 363 -205 627 -86 264
-165 503 -175 530 -10 28 -91 273 -180 545 -164 501 -196 595 -214 618 -7 9
-221 12 -1016 11 -553 -1 -1016 -4 -1028 -6z m1086 -681 c13 -53 29 -126 36
-162 7 -36 23 -112 34 -170 12 -58 29 -139 37 -180 8 -41 24 -109 34 -150 45
-184 60 -252 55 -261 -7 -10 -417 -11 -455 0 -14 4 -26 15 -28 27 -3 24 39
212 98 439 23 88 48 183 55 210 7 28 22 77 33 110 10 33 29 99 42 148 13 48
26 87 29 87 3 0 17 -44 30 -98z"/>
<path d="M4047 3500 c-41 -12 -156 -72 -169 -87 -6 -7 -18 -13 -27 -14 -9 0
-29 -9 -46 -19 -67 -42 -121 -63 -175 -65 -58 -2 -100 -13 -100 -25 0 -8 -142
-80 -158 -80 -5 0 -12 -7 -16 -15 -3 -8 -13 -15 -22 -15 -22 0 -82 -28 -122
-57 -17 -13 -37 -21 -42 -18 -6 3 -13 0 -16 -8 -3 -9 -16 -18 -30 -21 -13 -4
-24 -11 -24 -16 0 -6 -9 -10 -20 -10 -25 0 -26 -17 -2 -24 9 -2 -1 -2 -23 1
-22 3 -41 10 -43 14 -2 5 -12 9 -23 9 -10 0 -19 4 -19 9 0 19 -41 23 -59 7
-10 -9 -23 -16 -30 -16 -7 0 -19 -7 -27 -15 -9 -8 -28 -15 -44 -15 -16 0 -30
-4 -32 -9 -5 -13 -86 -61 -103 -61 -8 0 -15 -4 -15 -10 0 -5 -6 -10 -14 -10
-8 0 -21 -6 -28 -12 -21 -20 -56 -38 -72 -38 -7 0 -19 -7 -26 -15 -7 -8 -22
-15 -34 -15 -20 0 -34 -16 -63 -68 l-12 -23 33 20 c18 12 41 21 50 21 9 0 16
5 16 11 0 8 14 10 42 6 28 -4 55 0 78 10 60 26 144 64 162 74 10 5 24 9 32 9
7 0 19 7 26 15 7 8 21 15 31 15 11 0 19 5 19 10 0 6 6 10 14 10 7 0 34 11 60
25 57 30 96 34 48 5 -18 -11 -39 -20 -46 -20 -8 0 -16 -7 -20 -15 -3 -8 -15
-15 -26 -15 -11 0 -20 -4 -20 -10 0 -5 -6 -10 -14 -10 -7 0 -39 -14 -70 -30
-31 -17 -56 -28 -56 -25 0 3 -19 -8 -42 -25 -22 -16 -45 -30 -50 -30 -4 0 -27
-9 -51 -19 -23 -11 -64 -19 -90 -19 -30 0 -55 -6 -66 -16 -10 -9 -21 -16 -24
-16 -4 0 -76 -33 -160 -74 -104 -51 -161 -73 -182 -71 -16 1 -22 0 -12 -2 32
-8 19 -26 -14 -19 l-32 6 26 -21 27 -20 157 77 c250 121 275 132 318 131 35 0
130 37 185 73 37 24 366 180 380 180 8 0 30 -9 48 -20 18 -11 37 -20 42 -20
16 0 503 240 523 258 9 8 17 23 17 34 0 14 47 41 195 114 179 89 229 124 176
124 -11 0 -23 5 -26 10 -7 12 -29 12 -68 0z m-560 -376 c-3 -3 -12 -4 -19 -1
-8 3 -5 6 6 6 11 1 17 -2 13 -5z m-47 -24 c-20 -13 -33 -13 -25 0 3 6 14 10
23 10 15 0 15 -2 2 -10z m-47 -27 c-7 -2 -19 -2 -25 0 -7 3 -2 5 12 5 14 0 19
-2 13 -5z m-58 -23 c-3 -5 -11 -10 -16 -10 -6 0 -7 5 -4 10 3 6 11 10 16 10 6
0 7 -4 4 -10z m-35 -20 c0 -5 -10 -10 -22 -9 -22 0 -22 1 -3 9 11 5 21 9 23 9
1 1 2 -3 2 -9z m-117 -7 c-7 -2 -19 -2 -25 0 -7 3 -2 5 12 5 14 0 19 -2 13 -5z
m55 -24 c-12 -7 -24 -7 -35 0 -15 9 -12 10 17 10 29 0 32 -1 18 -10z"/>
<path d="M4406 3315 c-21 -7 -42 -18 -45 -23 -3 -4 -13 -12 -21 -15 -8 -4 -28
-16 -45 -26 -16 -11 -36 -20 -44 -20 -8 -1 -29 -12 -47 -26 -18 -14 -38 -25
-45 -25 -6 0 -45 -18 -86 -40 -58 -32 -78 -38 -88 -30 -16 14 -72 -2 -118 -33
-15 -10 -33 -20 -40 -21 -7 -1 -23 -9 -37 -19 -13 -9 -30 -17 -37 -17 -7 0
-37 -16 -67 -35 -30 -19 -62 -35 -71 -35 -8 0 -15 -4 -15 -10 0 -5 -9 -10 -20
-10 -11 0 -23 -7 -26 -15 -4 -8 -12 -15 -20 -15 -8 0 -14 -5 -14 -10 0 -6 -10
-15 -22 -21 -21 -8 -20 -9 7 -5 16 2 42 -2 58 -10 23 -13 34 -13 65 -2 20 6
44 18 53 25 8 7 23 13 32 13 9 0 19 5 22 10 3 6 14 10 24 10 10 0 24 7 31 15
7 8 21 15 31 15 11 0 19 5 19 10 0 6 9 10 21 10 11 0 27 7 35 15 9 8 24 15 35
15 10 0 19 5 19 10 0 6 12 10 26 10 21 0 14 -7 -37 -33 -35 -19 -73 -38 -84
-44 -11 -6 -58 -30 -105 -53 -47 -24 -94 -49 -105 -56 -28 -20 -78 -17 -108 6
-29 23 -60 26 -79 7 -7 -7 -107 -59 -223 -116 -115 -56 -222 -109 -237 -117
-29 -15 -115 -19 -136 -5 -22 13 15 23 63 15 31 -4 46 -2 58 10 8 9 24 16 35
16 11 0 22 7 26 15 3 8 12 15 21 15 8 0 15 5 15 10 0 6 6 10 14 10 8 0 18 5
22 11 5 9 -6 10 -40 5 -38 -6 -46 -5 -46 8 0 9 9 16 20 16 11 0 20 5 20 10 0
6 9 10 20 10 11 0 20 5 20 10 0 6 9 10 19 10 11 0 26 7 35 15 16 17 33 19 38
6 5 -13 78 -24 78 -11 0 5 9 10 20 10 11 0 23 7 26 15 4 8 16 15 28 15 11 0
30 7 40 15 19 14 18 15 -16 15 -20 0 -40 5 -43 10 -3 6 -22 10 -41 10 -19 0
-34 -4 -34 -10 0 -5 -13 -10 -30 -10 -16 0 -30 -4 -30 -9 0 -5 -21 -18 -47
-30 -49 -22 -84 -41 -93 -52 -16 -18 -58 -39 -77 -39 -13 0 -23 -4 -23 -10 0
-5 -9 -10 -19 -10 -21 0 -84 -30 -89 -42 -2 -5 -12 -8 -23 -8 -10 0 -19 -7
-19 -15 0 -9 -7 -18 -15 -21 -8 -4 -15 -12 -15 -20 0 -8 -8 -14 -19 -14 -10 0
-24 -7 -31 -15 -7 -8 -21 -15 -31 -15 -11 0 -19 -4 -19 -10 0 -5 -7 -10 -15
-10 -9 0 -32 -10 -53 -23 -20 -12 -50 -28 -67 -36 -86 -38 -114 -56 -102 -64
7 -5 0 -6 -18 -3 l-30 6 30 -25 c17 -14 38 -25 47 -25 10 0 84 33 165 73 285
142 273 137 297 127 27 -10 67 7 359 154 l208 104 58 -21 57 -21 259 130 c220
109 260 133 265 154 4 21 37 41 195 121 115 57 190 101 190 110 0 7 -4 14 -10
15 -5 0 -23 6 -38 12 -16 7 -29 12 -30 12 -1 -1 -20 -7 -41 -15z m-321 -265
c-3 -5 -10 -10 -16 -10 -5 0 -9 5 -9 10 0 6 7 10 16 10 8 0 12 -4 9 -10z m-35
-20 c0 -5 -12 -10 -27 -9 l-28 1 25 8 c14 4 26 8 28 9 1 1 2 -3 2 -9z m-1205
-450 c-3 -5 -12 -10 -20 -10 -7 0 -15 -4 -17 -8 -3 -9 -129 -72 -142 -72 -19
0 0 18 37 34 23 10 44 21 47 25 19 24 109 54 95 31z m-200 -100 c-3 -5 -12
-10 -18 -10 -7 0 -6 4 3 10 19 12 23 12 15 0z"/>
<path d="M4774 3115 c-10 -8 -26 -15 -36 -15 -9 0 -18 -3 -20 -7 -4 -10 -148
-85 -148 -77 0 3 -12 -3 -28 -13 -49 -32 -67 -43 -82 -49 -38 -15 -80 -39 -80
-46 0 -14 -29 -9 -37 7 -7 12 -22 7 -88 -25 -44 -22 -87 -40 -96 -40 -9 0 -19
-7 -23 -15 -3 -8 -17 -15 -31 -15 -14 0 -25 -4 -25 -10 0 -5 -7 -10 -15 -10
-8 0 -15 -4 -15 -10 0 -5 -11 -12 -25 -16 -14 -3 -25 -10 -25 -15 0 -5 -7 -9
-15 -9 -9 0 -18 -6 -21 -13 -2 -7 -21 -13 -40 -14 -20 0 -39 -5 -43 -10 -3 -6
-13 -13 -21 -16 -10 -4 -8 -6 7 -6 12 -1 38 -11 58 -23 l37 -21 49 24 c27 13
47 29 45 34 -3 10 -12 10 -58 -1 -22 -5 -28 -3 -28 10 0 10 4 15 9 11 5 -3 16
2 24 10 9 8 23 15 31 15 9 0 16 5 16 10 0 6 7 10 15 10 9 0 18 7 21 15 7 16
50 21 56 6 5 -14 78 -25 78 -12 0 6 9 11 19 11 10 0 21 7 25 15 3 8 12 15 21
15 8 0 23 4 33 9 9 5 35 17 57 26 22 10 52 29 67 43 24 22 28 23 34 9 7 -19
-3 -53 -12 -44 -4 3 -23 -4 -43 -17 -50 -31 -444 -226 -457 -226 -6 0 -29 9
-52 20 -37 18 -47 19 -82 9 -22 -7 -40 -16 -40 -21 0 -4 -8 -8 -19 -8 -10 0
-24 -7 -31 -15 -7 -8 -18 -15 -26 -15 -13 0 -97 -43 -121 -62 -6 -5 -24 -8
-40 -6 -25 4 -26 5 -8 12 75 31 95 41 95 48 0 4 12 8 27 8 14 0 23 3 19 7 -8
8 60 43 83 43 20 0 -18 29 -38 30 -8 0 -23 7 -33 16 -17 16 -21 15 -69 -10
-28 -14 -55 -26 -60 -26 -5 0 -27 -11 -49 -25 -22 -14 -46 -25 -55 -25 -8 0
-15 -4 -15 -10 0 -5 -8 -10 -17 -10 -36 0 -228 -105 -268 -146 -38 -39 -63
-54 -210 -119 -33 -15 -67 -33 -75 -40 -8 -7 -27 -17 -42 -20 -16 -4 -28 -11
-28 -16 0 -5 -6 -9 -14 -9 -30 0 -24 -17 12 -38 44 -24 12 -35 285 99 149 73
184 87 212 82 29 -5 73 14 301 128 l266 132 47 -18 c25 -9 54 -17 64 -17 20 1
483 228 510 250 9 8 17 23 17 32 0 11 59 46 195 114 120 59 195 102 195 111 0
17 -21 20 -35 6 -6 -5 -21 -12 -35 -16 -20 -6 -23 -5 -12 6 6 7 12 17 12 21 0
13 -35 9 -56 -7z m16 -45 c-19 -13 -30 -13 -30 0 0 6 10 10 23 10 18 0 19 -2
7 -10z m-97 -47 c-7 -2 -19 -2 -25 0 -7 3 -2 5 12 5 14 0 19 -2 13 -5z m-53
-23 c-20 -13 -33 -13 -25 0 3 6 14 10 23 10 15 0 15 -2 2 -10z m-40 -17 c-1
-11 -73 -43 -96 -42 -14 0 -10 5 13 15 17 7 34 18 38 24 7 11 45 14 45 3z
m-1080 -483 c-19 -13 -30 -13 -30 0 0 6 10 10 23 10 18 0 19 -2 7 -10z m-40
-20 c0 -5 -7 -10 -16 -10 -8 0 -12 5 -9 10 3 6 10 10 16 10 5 0 9 -4 9 -10z
m-43 -26 c-3 -3 -12 -4 -19 -1 -8 3 -5 6 6 6 11 1 17 -2 13 -5z m-57 -24 c0
-5 -5 -10 -11 -10 -5 0 -7 5 -4 10 3 6 8 10 11 10 2 0 4 -4 4 -10z"/>
<path d="M5153 2930 c-13 -5 -23 -14 -23 -20 0 -5 -9 -10 -21 -10 -11 0 -18
-4 -14 -10 6 -10 36 -2 46 13 4 5 17 7 30 5 22 -3 20 -5 -16 -24 -29 -15 -48
-19 -67 -13 -16 4 -30 3 -34 -2 -3 -5 5 -9 18 -9 22 -1 22 -1 3 -12 -11 -7
-26 -18 -33 -25 -7 -7 -19 -13 -27 -13 -7 0 -46 -18 -87 -39 -58 -31 -73 -44
-71 -60 2 -18 -15 -29 -105 -71 -59 -28 -115 -55 -124 -60 -10 -6 -25 -10 -33
-10 -8 0 -15 -4 -15 -8 0 -9 -69 -42 -88 -42 -5 0 -12 -3 -14 -7 -6 -14 -78
-46 -85 -39 -4 4 3 9 15 13 12 3 22 9 22 13 0 4 11 11 25 14 14 4 25 11 25 16
0 6 9 10 20 10 11 0 20 5 20 10 0 6 9 10 19 10 11 0 26 7 35 15 8 8 24 15 35
15 12 0 21 5 21 10 0 6 7 10 15 10 9 0 18 7 21 15 4 8 14 15 24 15 10 0 23 7
30 15 7 8 21 15 31 15 11 0 19 4 19 9 0 5 9 11 21 14 30 8 14 27 -22 27 -18 0
-28 -4 -24 -10 3 -5 -3 -10 -14 -10 -12 0 -21 5 -21 10 0 6 -9 10 -19 10 -11
0 -23 5 -26 10 -4 7 -14 3 -25 -10 -9 -11 -22 -20 -28 -20 -14 0 -76 -33 -80
-42 -2 -5 -15 -8 -28 -8 -13 0 -24 -3 -24 -8 0 -4 -17 -16 -37 -26 -21 -10
-46 -22 -55 -27 -10 -5 -27 -9 -37 -9 -11 0 -23 -5 -26 -10 -3 -6 -26 -19 -50
-30 -24 -11 -47 -24 -50 -30 -3 -5 -15 -10 -26 -10 -10 0 -19 -4 -19 -10 0 -5
-16 -10 -35 -10 -19 0 -35 4 -35 8 0 4 -16 14 -35 20 -35 13 -48 10 -130 -35
-11 -6 -54 -26 -95 -44 -41 -18 -76 -36 -78 -41 -2 -4 -10 -8 -17 -8 -8 0 -36
-12 -62 -27 -63 -35 -73 -39 -107 -49 -16 -5 -33 -17 -37 -27 -5 -9 -13 -25
-17 -35 -9 -18 -48 -41 -83 -47 -12 -3 -29 -10 -38 -18 -9 -7 -45 -26 -81 -42
-36 -16 -72 -34 -80 -40 -8 -5 -36 -21 -62 -34 -27 -13 -48 -28 -48 -32 0 -11
54 -39 74 -39 15 0 85 33 308 146 110 55 131 62 154 54 23 -9 56 5 289 120
145 71 274 130 287 130 12 -1 34 -7 48 -15 14 -8 33 -14 42 -15 10 0 133 56
274 125 224 111 257 129 265 155 9 25 37 42 197 123 102 51 187 98 189 104 3
7 -12 9 -43 5 -34 -3 -45 -2 -40 7 8 13 0 13 -31 1z m-878 -450 c3 -5 -3 -10
-14 -10 -11 0 -23 5 -26 10 -3 6 3 10 14 10 11 0 23 -4 26 -10z m-98 -26 c-3
-3 -12 -4 -19 -1 -8 3 -5 6 6 6 11 1 17 -2 13 -5z m186 -1 c-13 -2 -35 -2 -50
0 -16 2 -5 4 22 4 28 0 40 -2 28 -4z m-338 -73 c-3 -5 -11 -10 -16 -10 -6 0
-7 5 -4 10 3 6 11 10 16 10 6 0 7 -4 4 -10z"/>
<path d="M4988 2853 c-10 -2 -18 -8 -18 -13 0 -5 -12 -13 -27 -18 -17 -6 -21
-11 -11 -11 9 -1 33 8 52 20 47 27 48 34 4 22z"/>
<path d="M4870 2785 c-7 -8 -19 -15 -26 -15 -8 0 -14 -4 -14 -10 0 -5 -7 -10
-15 -10 -8 0 -15 -7 -15 -15 0 -22 12 -18 49 16 19 17 44 35 55 39 l21 9 -21
0 c-12 1 -27 -6 -34 -14z"/>
<path d="M1640 2775 c0 -2 18 -14 40 -25 22 -11 40 -17 40 -12 0 5 -16 16 -35
25 -38 18 -45 20 -45 12z"/>
<path d="M5449 2748 c-14 -13 -47 -29 -74 -36 -27 -7 -52 -16 -55 -20 -3 -4
-21 -14 -40 -23 -92 -44 -107 -51 -135 -69 -16 -10 -38 -19 -48 -19 -16 -1
-173 -77 -187 -91 -12 -12 -51 -30 -65 -30 -13 0 -85 -34 -145 -69 -48 -27
-100 -51 -113 -51 -8 0 -20 -7 -27 -15 -14 -17 -67 -20 -72 -4 -2 5 -10 11
-18 12 -8 2 -21 6 -27 10 -8 5 -13 4 -13 -2 0 -6 -9 -11 -20 -11 -11 0 -28 -4
-38 -9 -9 -5 -57 -29 -107 -52 -49 -23 -92 -46 -95 -49 -6 -8 -62 -24 -74 -21
-5 1 -18 -7 -30 -17 -11 -11 -53 -34 -93 -52 -50 -24 -73 -40 -77 -56 -4 -14
-34 -37 -87 -68 -45 -25 -87 -46 -94 -46 -7 0 -24 -9 -38 -20 -14 -11 -31 -20
-37 -20 -18 0 -140 -61 -140 -70 0 -4 19 -17 42 -30 l43 -22 207 101 c171 84
214 101 250 100 37 -1 82 19 307 131 259 130 264 132 300 120 20 -6 142 -65
271 -130 167 -83 235 -122 235 -134 0 -20 -27 -35 -270 -152 -99 -47 -187 -90
-195 -94 -8 -5 -73 -38 -145 -73 -160 -79 -238 -118 -290 -145 -22 -12 -60
-30 -85 -41 -25 -11 -56 -26 -70 -34 -14 -7 -38 -20 -55 -28 -16 -8 -52 -27
-80 -40 -178 -91 -302 -149 -317 -149 -16 0 -253 116 -1265 618 l-273 134
-182 -90 c-222 -109 -305 -150 -338 -167 -14 -8 -113 -57 -220 -109 -222 -109
-242 -122 -220 -137 40 -27 2479 -1239 2494 -1239 14 0 725 352 2311 1142 110
55 206 104 213 110 9 8 12 116 12 477 0 256 -3 476 -6 489 -8 28 -21 28 -30 0
l-7 -23 -8 23 c-5 12 -15 22 -23 22 -8 0 -16 3 -18 8 -4 10 -67 42 -84 42 -8
0 -14 4 -14 9 0 5 -11 12 -25 15 -14 4 -25 11 -25 16 0 6 -13 10 -30 10 -16 0
-30 5 -30 10 0 6 -8 10 -19 10 -10 0 -24 7 -31 15 -7 8 -21 15 -31 15 -11 0
-19 5 -19 10 0 6 -8 10 -18 10 -22 0 -79 27 -87 41 -4 5 -19 9 -35 9 -15 0
-30 6 -33 13 -3 10 -11 10 -39 0 -51 -19 -128 -17 -128 3 0 8 4 13 9 10 5 -3
14 1 21 9 7 8 23 15 36 15 13 0 24 5 24 10 0 19 -57 10 -81 -12z"/>
<path d="M2230 2682 c-14 -9 -26 -20 -28 -24 -2 -5 -12 -8 -23 -8 -10 0 -19
-4 -19 -10 0 -5 -9 -10 -19 -10 -11 0 -23 -4 -26 -10 -3 -5 3 -10 14 -10 11 0
23 4 26 10 3 5 23 17 43 27 20 9 51 25 67 35 24 14 26 18 10 17 -11 0 -31 -8
-45 -17z"/>
<path d="M3808 2663 c7 -3 16 -2 19 1 4 3 -2 6 -13 5 -11 0 -14 -3 -6 -6z"/>
<path d="M7248 1294 c-38 -20 -49 -45 -42 -97 6 -40 11 -47 43 -60 20 -8 59
-21 86 -28 63 -15 75 -25 75 -59 0 -30 -21 -53 -63 -69 -39 -15 -103 12 -124
53 l-17 31 -6 -30 c-8 -38 11 -61 61 -76 60 -19 123 -4 158 37 37 42 41 84 9
114 -23 22 -38 26 -38 10 0 -5 -12 -3 -27 5 -16 7 -50 22 -78 32 -48 18 -50
20 -50 58 0 33 5 41 31 57 26 15 36 16 63 7 42 -15 51 -5 12 15 -37 20 -58 20
-93 0z"/>
<path d="M8114 1296 c-17 -8 -44 -31 -60 -52 -25 -33 -29 -46 -28 -103 0 -64
16 -123 42 -154 19 -23 95 -40 144 -32 23 4 60 18 81 31 36 24 37 26 37 84 0
59 -14 85 -31 59 -6 -8 -7 -31 -4 -52 4 -31 1 -42 -19 -60 -14 -13 -42 -28
-62 -35 -32 -9 -44 -8 -79 7 -53 23 -79 74 -79 152 -1 67 19 101 73 129 36 18
42 18 75 5 42 -18 46 -18 46 -5 0 11 -40 29 -80 36 -14 2 -39 -2 -56 -10z"/>
<path d="M8511 1296 c-86 -31 -126 -162 -78 -251 6 -11 11 -26 12 -34 0 -8 12
-23 28 -34 32 -25 115 -29 164 -9 80 34 118 167 73 254 -21 41 -36 58 -53 58
-4 0 2 -19 14 -41 47 -93 31 -189 -40 -236 -93 -63 -181 2 -181 133 0 80 8 96
65 129 l44 26 40 -20 c49 -25 58 -26 40 -4 -14 16 -70 44 -86 42 -4 0 -23 -6
-42 -13z"/>
<path d="M9347 1303 c-3 -5 -6 -69 -6 -141 0 -72 -3 -148 -7 -168 -6 -32 -4
-36 12 -32 16 3 20 15 24 83 l5 80 78 3 c116 4 100 29 -23 34 l-55 3 -3 65
c-3 62 -13 92 -25 73z"/>
<path d="M9717 1287 c-4 -12 -7 -89 -8 -172 -1 -130 1 -150 15 -153 14 -3 16
16 16 167 0 155 -9 216 -23 158z"/>
<path d="M10188 1301 c-31 -3 -59 -9 -62 -12 -4 -3 -7 -79 -9 -168 -2 -139 0
-161 13 -159 12 3 16 31 20 153 l5 150 50 5 c37 4 51 9 53 23 2 9 0 16 -5 16
-4 -1 -34 -5 -65 -8z"/>
<path d="M10456 1302 c-50 -1 -95 -7 -102 -13 -9 -7 -12 -51 -13 -143 0 -73
-3 -145 -7 -160 l-6 -26 126 0 c113 0 126 2 126 18 0 15 -12 17 -102 17 l-103
0 0 60 0 60 88 3 c65 2 87 6 87 16 0 11 -21 14 -87 15 -87 1 -109 10 -98 39 3
8 5 29 5 47 l0 34 98 3 c76 2 97 6 97 17 0 18 1 17 -109 13z"/>
<path d="M10759 1297 c-64 -29 -91 -75 -90 -158 0 -32 6 -71 14 -86 8 -15 12
-33 10 -39 -6 -17 44 -52 83 -60 56 -10 105 4 141 43 30 31 44 73 26 73 -5 0
-21 -16 -37 -36 -16 -20 -44 -42 -62 -50 -74 -31 -146 46 -146 157 0 63 19 99
69 127 39 22 44 22 72 7 35 -18 41 -18 41 -5 0 10 -64 41 -84 39 -6 0 -23 -6
-37 -12z"/>
<path d="M11054 1298 c-5 -7 -9 -78 -10 -158 -2 -80 -4 -152 -6 -160 -2 -9 5
-15 17 -15 17 0 20 8 23 60 4 107 3 105 82 105 117 0 94 25 -30 32 l-45 3 -3
65 c-3 67 -13 92 -28 68z"/>
<path d="M12580 1236 c0 -41 4 -77 9 -81 13 -8 25 77 17 120 -12 60 -26 38
-26 -39z"/>
<path d="M12743 1258 c-30 -29 -61 -65 -69 -80 -10 -19 -25 -29 -49 -34 -37
-7 -39 -12 -48 -109 -2 -22 -6 -47 -8 -55 -3 -10 3 -15 16 -15 18 0 20 8 23
61 3 64 15 85 59 98 18 6 28 -3 65 -54 24 -34 42 -69 40 -77 -2 -9 2 -20 10
-24 17 -11 58 -11 58 -1 0 5 -22 38 -50 73 -84 108 -90 117 -90 126 0 4 27 35
60 67 33 33 60 63 60 68 0 19 -24 5 -77 -44z"/>
<path d="M7629 1267 c-15 -18 -35 -60 -44 -93 -10 -32 -33 -90 -51 -127 -38
-77 -40 -87 -18 -87 9 0 25 22 39 55 l25 55 74 0 c84 0 95 -7 103 -70 5 -34 9
-40 29 -40 28 0 32 24 10 55 -7 11 -25 52 -40 90 -37 95 -84 195 -93 195 -5 0
-20 -15 -34 -33z m85 -162 c-4 -10 -21 -15 -55 -15 -61 0 -68 13 -45 85 24 76
44 76 78 3 15 -32 25 -65 22 -73z"/>
<path d="M7890 1146 c0 -101 -4 -157 -11 -162 -16 -10 6 -28 25 -21 23 9 24
337 1 337 -13 0 -15 -24 -15 -154z"/>
<path d="M8839 1288 c-1 -14 -1 -14 -12 -68 -3 -19 -8 -86 -10 -148 -3 -99 -2
-112 12 -110 13 3 17 24 21 118 5 106 7 115 25 118 15 1 29 -12 54 -53 39 -65
61 -86 61 -60 0 20 -128 215 -141 215 -5 0 -10 -6 -10 -12z"/>
<path d="M9050 1196 c0 -61 -6 -129 -15 -163 -16 -60 -10 -77 21 -71 18 3 19
15 19 167 0 123 -3 165 -12 169 -10 3 -13 -22 -13 -102z"/>
<path d="M9568 1238 c-5 -196 -2 -278 8 -278 19 0 24 27 24 133 0 119 -9 207
-21 207 -5 0 -10 -28 -11 -62z"/>
<path d="M10007 1294 c-13 -13 5 -24 38 -24 37 0 54 14 29 24 -21 8 -59 8 -67
0z"/>
<path d="M11276 1228 c-7 -86 -7 -86 0 -161 4 -39 2 -63 -7 -73 -15 -19 2 -40
26 -31 13 6 15 28 13 168 -2 110 -7 164 -14 166 -8 3 -14 -21 -18 -69z"/>
<path d="M11577 1285 c-12 -11 -15 -45 -16 -147 0 -73 -2 -142 -3 -153 -2 -12
3 -20 12 -20 11 0 16 14 18 55 2 30 8 60 13 66 5 7 40 13 77 16 84 4 128 31
134 81 5 45 -4 78 -24 91 -23 14 -35 0 -20 -24 19 -31 14 -69 -13 -95 -20 -21
-34 -25 -83 -25 -74 0 -84 11 -80 82 l3 53 78 0 c76 0 77 0 56 18 -27 22 -131
24 -152 2z"/>
<path d="M11959 1267 c-29 -37 -59 -107 -59 -140 0 -13 -7 -32 -15 -43 -17
-21 -55 -102 -55 -115 0 -24 32 -4 46 29 9 20 20 44 24 52 5 11 27 16 82 18
94 4 99 -1 107 -100 1 -11 39 -10 46 2 3 5 -5 33 -19 62 -14 29 -36 83 -50
119 -28 76 -65 149 -75 149 -3 0 -18 -15 -32 -33z m61 -83 c11 -25 20 -57 20
-70 0 -22 -4 -24 -50 -24 -68 0 -77 19 -45 88 30 65 50 66 75 6z"/>
<path d="M12222 1287 c-6 -7 -11 -67 -11 -143 0 -72 -3 -143 -7 -158 -6 -24
-4 -27 12 -24 16 3 19 14 22 76 3 67 5 72 27 78 38 9 127 -32 150 -69 11 -18
20 -39 21 -47 1 -8 2 -21 3 -27 1 -7 12 -13 26 -13 18 0 25 5 25 19 0 11 -4
22 -9 26 -16 9 -71 95 -71 109 0 8 11 21 23 29 13 9 30 29 37 46 10 26 10 35
-6 62 -17 29 -42 38 -37 14 1 -5 5 -23 9 -38 6 -24 0 -34 -36 -68 -29 -28 -47
-38 -59 -33 -9 3 -35 11 -59 16 l-43 10 3 56 3 57 78 0 c78 0 92 6 58 25 -28
15 -146 13 -159 -3z"/>
<path d="M10896 1257 c1 -18 3 -35 3 -39 1 -11 39 -10 46 2 7 11 -21 56 -39
63 -10 4 -13 -3 -10 -26z"/>
<path d="M7390 1250 c0 -23 5 -30 19 -30 28 0 33 13 15 38 -21 31 -34 27 -34
-8z"/>
<path d="M8268 1245 c3 -26 9 -35 23 -35 27 0 32 16 13 45 -24 37 -41 32 -36
-10z"/>
<path d="M8197 1123 c-16 -15 -4 -23 36 -23 39 1 41 2 23 15 -21 16 -48 20
-59 8z"/>
<path d="M9900 1093 c-84 -11 -91 -33 -9 -33 36 0 49 4 49 14 0 19 -9 23 -40
19z"/>
<path d="M6985 703 c-6 -13 -7 -69 -3 -140 10 -194 10 -193 113 -193 68 0 76
2 104 30 23 23 31 43 36 85 8 64 3 210 -8 221 -15 16 -20 -10 -19 -99 2 -113
-9 -165 -43 -194 -45 -39 -121 -25 -146 26 -8 15 -16 80 -19 156 -4 96 -8 124
-15 108z"/>
<path d="M7375 689 c-30 -27 -34 -36 -31 -70 2 -21 9 -45 15 -53 23 -27 182
-72 167 -47 -8 12 -93 51 -112 51 -16 0 -44 39 -44 62 0 9 10 27 23 39 18 17
30 20 72 15 l50 -5 -25 19 c-37 29 -74 25 -115 -11z"/>
<path d="M7696 699 c-3 -13 -7 -93 -8 -177 -3 -139 -2 -152 15 -152 20 0 19
-7 17 185 -1 140 -12 201 -24 144z"/>
<path d="M8406 713 c-4 -4 -39 -6 -79 -5 -40 2 -85 -1 -99 -7 l-27 -10 1 -143
c0 -79 -1 -150 -3 -158 -3 -13 15 -15 121 -15 101 0 125 3 125 14 0 11 -22 14
-105 15 l-105 1 -3 56 c-3 67 0 69 116 69 64 0 72 2 72 19 0 17 -7 18 -69 13
-38 -2 -81 -2 -96 2 -24 6 -26 10 -23 59 l3 52 100 5 c77 4 100 8 100 19 0 16
-18 25 -29 14z"/>
<path d="M8583 699 c-36 -23 -43 -39 -39 -87 4 -48 32 -69 111 -88 39 -9 76
-18 83 -20 6 -2 12 -19 12 -38 0 -41 -37 -76 -80 -76 -42 0 -89 20 -95 40 -3
10 -12 24 -20 30 -12 10 -14 6 -13 -25 2 -50 27 -65 106 -65 93 0 142 36 142
104 0 31 -38 70 -54 57 -7 -6 -16 -7 -22 -2 -5 5 -37 19 -71 31 -58 21 -63 25
-69 58 -10 50 23 75 89 68 26 -3 47 -3 47 -1 0 8 -59 35 -77 35 -10 0 -32 -10
-50 -21z"/>
<path d="M8922 699 c-34 -22 -44 -46 -39 -91 7 -52 46 -76 155 -93 68 -11 80
-61 25 -105 -49 -38 -125 -22 -159 33 l-19 32 -3 -35 c-5 -51 23 -70 105 -70
96 0 143 34 143 104 0 30 -39 73 -51 55 -5 -9 -11 -10 -21 -2 -7 5 -40 20 -73
32 -72 26 -95 59 -70 98 18 27 53 37 100 29 43 -8 45 -2 5 19 -39 20 -59 19
-98 -6z"/>
<path d="M9427 714 c-4 -4 -41 -6 -83 -5 -122 3 -123 1 -121 -167 0 -76 -2
-143 -6 -149 -12 -19 6 -23 123 -23 118 0 132 3 124 23 -3 8 -33 11 -94 8
-107 -4 -120 3 -120 65 0 55 15 64 114 64 68 0 76 2 76 19 0 17 -7 18 -69 13
-38 -2 -81 -2 -95 2 -23 6 -26 11 -26 49 0 23 4 47 8 54 5 8 42 13 102 15 81
3 95 6 98 21 3 16 -18 24 -31 11z"/>
<path d="M9612 703 c-18 -9 -37 -24 -42 -33 -14 -26 -5 -90 16 -110 18 -18
118 -50 156 -50 44 0 42 -72 -4 -104 -40 -28 -131 -13 -143 24 -3 10 -12 24
-20 30 -12 10 -14 6 -13 -25 2 -51 26 -65 114 -65 68 0 75 2 103 31 36 36 41
81 12 119 -15 19 -22 22 -33 12 -8 -6 -18 -8 -24 -3 -5 5 -37 19 -71 31 -58
21 -63 25 -69 58 -6 30 -3 39 17 55 19 15 34 18 71 14 27 -4 48 -4 48 -2 0 7
-58 35 -72 35 -7 0 -28 -8 -46 -17z"/>
<path d="M10396 687 c-37 -31 -38 -33 -29 -77 10 -53 41 -75 129 -91 32 -6 65
-15 72 -21 20 -17 14 -48 -17 -79 -47 -47 -126 -36 -156 21 -21 40 -34 38 -32
-6 4 -51 26 -64 113 -64 66 0 75 3 103 29 23 22 31 38 31 64 0 40 -34 90 -48
69 -6 -9 -17 -8 -48 7 -22 11 -52 23 -67 26 -31 8 -43 21 -52 56 -5 21 -1 31
22 49 23 18 36 21 73 16 l45 -6 -25 20 c-36 29 -71 25 -114 -13z"/>
<path d="M10752 702 c-34 -17 -47 -46 -40 -87 3 -14 1 -25 -5 -25 -5 0 -3 -7
4 -17 20 -24 86 -50 147 -58 43 -6 53 -11 58 -30 9 -35 -2 -59 -37 -79 -49
-29 -106 -17 -146 31 l-32 38 2 -35 c3 -55 28 -70 112 -70 81 0 113 16 135 69
16 40 -5 86 -40 87 -14 0 -47 10 -73 22 -27 12 -55 22 -62 22 -20 0 -47 49
-41 75 8 30 56 49 103 41 l38 -6 -24 20 c-28 24 -54 25 -99 2z"/>
<path d="M11118 700 c-51 -27 -78 -70 -85 -133 -4 -38 0 -63 13 -92 10 -22 18
-46 18 -53 1 -7 12 -22 26 -32 35 -27 143 -28 183 -1 85 56 103 214 32 281
-33 31 -41 20 -16 -21 30 -48 29 -159 0 -200 -37 -53 -99 -72 -154 -47 -29 13
-75 102 -75 145 1 94 92 169 161 132 38 -20 42 -3 5 19 -45 27 -60 27 -108 2z"/>
<path d="M11514 705 c-87 -38 -121 -168 -68 -253 8 -12 12 -27 8 -33 -3 -5 4
-19 17 -30 31 -27 139 -27 184 1 32 20 60 64 50 81 -10 16 -20 10 -39 -22 -41
-70 -139 -76 -182 -12 -47 70 -41 176 13 223 35 31 64 37 107 20 35 -13 33 2
-3 23 -34 20 -45 20 -87 2z"/>
<path d="M12451 711 c-7 -5 -22 -6 -32 -4 -11 3 -33 0 -49 -7 l-31 -13 2 -143
c0 -79 -2 -148 -6 -154 -3 -5 1 -13 10 -17 29 -10 35 17 35 164 l0 142 53 3
c37 2 52 7 52 17 0 18 -16 23 -34 12z"/>
<path d="M12586 710 c-3 -8 -6 -88 -8 -178 -3 -140 -1 -162 12 -160 12 3 15
30 18 161 1 88 -2 165 -7 175 -8 14 -10 15 -15 2z"/>
<path d="M12795 697 c-59 -33 -85 -78 -85 -146 1 -31 7 -67 15 -81 8 -14 14
-34 15 -45 0 -33 49 -55 124 -55 63 0 68 2 105 39 37 37 61 90 61 136 0 61
-54 156 -80 140 -5 -3 -27 3 -49 15 -50 25 -57 25 -106 -3z m111 -19 c57 -16
73 -39 81 -111 11 -104 -54 -185 -138 -174 -22 3 -47 11 -56 19 -45 37 -67
154 -40 208 13 26 71 70 93 70 8 0 35 -6 60 -12z"/>
<path d="M13357 714 c-4 -4 -7 -50 -7 -101 0 -93 -12 -170 -31 -207 -14 -24 1
-39 32 -34 24 3 24 3 27 161 2 146 -4 198 -21 181z"/>
<path d="M6653 695 c-21 -15 -22 -22 -20 -156 2 -77 -1 -143 -5 -145 -24 -15
14 -24 97 -24 89 0 94 1 124 29 25 23 31 37 31 70 0 29 -6 46 -20 58 -24 21
-25 45 -4 79 20 30 8 66 -27 85 -20 10 -21 9 -14 -7 16 -39 15 -70 -4 -101
-18 -29 -23 -31 -63 -27 -87 10 -88 11 -88 53 0 67 5 71 79 72 64 1 65 1 36
14 -40 19 -96 18 -122 0z m187 -196 c13 -31 0 -73 -29 -88 -27 -15 -124 -14
-139 1 -7 7 -12 31 -12 55 0 54 16 63 102 60 62 -2 69 -4 78 -28z"/>
<path d="M7853 683 c3 -15 -1 -36 -8 -47 -9 -14 -14 -65 -17 -144 -3 -105 -1
-122 12 -120 12 3 15 24 15 118 0 107 1 115 20 118 27 3 35 -4 78 -70 34 -52
57 -72 57 -50 0 5 -17 36 -37 70 -86 140 -132 188 -120 125z"/>
<path d="M8066 688 c-3 -13 -6 -65 -6 -116 0 -51 -4 -101 -9 -110 -5 -9 -11
-33 -13 -52 -3 -30 0 -35 21 -38 13 -2 28 2 32 10 5 7 9 60 9 118 0 166 -16
254 -34 188z"/>
<path d="M10121 682 c-24 -26 -70 -124 -71 -149 0 -11 -20 -56 -56 -127 -8
-16 -12 -31 -9 -35 12 -12 40 17 53 55 7 21 18 42 25 46 7 4 44 8 84 8 80 0
94 -11 97 -74 1 -24 7 -32 24 -34 14 -2 22 2 22 11 0 24 -129 327 -139 327 -3
0 -17 -13 -30 -28z m54 -88 c14 -31 25 -66 25 -77 0 -18 -5 -19 -51 -15 -69 7
-76 16 -54 75 34 91 46 93 80 17z"/>
<path d="M11810 558 c0 -104 -4 -158 -12 -166 -9 -9 -7 -13 6 -18 10 -4 22 -2
27 3 15 15 7 325 -8 331 -10 3 -13 -32 -13 -150z"/>
<path d="M12040 678 c-26 -33 -60 -111 -60 -138 0 -16 -53 -124 -71 -146 -9
-11 -7 -15 6 -20 21 -9 36 7 55 59 l16 42 80 3 c78 3 81 2 92 -23 7 -14 12
-39 12 -55 0 -25 4 -30 25 -30 14 0 25 5 25 10 0 6 -20 58 -45 116 -25 57 -45
109 -45 113 0 13 -51 101 -58 100 -4 0 -18 -14 -32 -31z m64 -92 c15 -36 25
-70 21 -75 -8 -14 -71 -14 -96 -1 -10 6 -19 20 -19 31 0 31 43 107 61 109 3 0
18 -29 33 -64z"/>
<path d="M12237 704 c-12 -12 4 -24 33 -24 16 0 31 4 34 9 10 16 -52 30 -67
15z"/>
<path d="M13126 673 c-11 -63 -22 -287 -15 -297 20 -23 29 12 29 108 0 100 7
126 36 126 6 0 30 -29 53 -65 44 -68 61 -85 61 -62 0 29 -122 216 -146 224 -7
2 -15 -12 -18 -34z"/>
<path d="M7529 683 c-3 -48 16 -72 39 -49 16 15 8 37 -18 54 -17 10 -20 10
-21 -5z"/>
<path d="M8720 681 c0 -32 11 -51 30 -51 39 0 35 40 -6 58 -21 10 -24 9 -24
-7z"/>
<path d="M9065 668 c0 -28 4 -33 24 -33 33 0 37 19 10 44 -30 28 -35 27 -34
-11z"/>
<path d="M9750 665 c0 -28 4 -35 19 -35 11 0 23 4 26 10 8 13 -10 46 -30 54
-12 4 -15 -2 -15 -29z"/>
<path d="M10890 665 c0 -31 3 -35 25 -35 18 0 25 5 25 19 0 10 -11 26 -25 35
l-25 16 0 -35z"/>
<path d="M11640 691 c0 -5 4 -12 9 -15 5 -3 7 -15 4 -27 -6 -23 12 -40 34 -32
18 7 16 37 -4 55 -28 23 -43 30 -43 19z"/>
<path d="M10550 660 c0 -25 4 -30 25 -30 27 0 31 10 15 41 -17 30 -40 24 -40
-11z"/>
<path d="M7543 518 c3 -13 8 -33 12 -45 10 -31 -42 -83 -83 -83 -50 0 -89 19
-102 51 -19 45 -30 45 -28 -1 2 -56 24 -70 111 -70 84 0 123 22 133 76 7 38
-8 79 -34 89 -11 4 -13 0 -9 -17z"/>
</g>
</svg>
