<svg xmlns="http://www.w3.org/2000/svg" width="623" height="236" viewBox="0 0 623 236" version="1.1"><path d="" stroke="none" fill="#646464" fill-rule="evenodd"/><path d="M 98.250 42.286 L 46 68.480 46 89.233 L 46 109.986 58.986 116.493 C 66.128 120.072, 72.598 123, 73.364 123 C 74.130 123, 83.604 118.681, 94.418 113.401 C 109.171 106.199, 114.689 103.956, 116.525 104.417 C 118.308 104.864, 121.925 103.550, 129.857 99.572 C 135.844 96.569, 140.983 93.486, 141.277 92.720 C 141.571 91.955, 145.228 89.792, 149.405 87.914 C 157.065 84.470, 158.652 82.659, 155.020 81.506 C 153.723 81.095, 150.252 82.329, 144.956 85.083 C 140.511 87.396, 135.889 89.402, 134.686 89.540 C 133.484 89.678, 127.775 92.087, 122 94.893 C 116.225 97.700, 111.119 99.997, 110.654 99.998 C 109.158 100.002, 89 89.839, 89 89.082 C 89 88.291, 149.457 58, 151.036 58 C 151.561 58, 166.123 65.061, 183.394 73.692 L 214.797 89.384 234.898 79.475 C 245.954 74.026, 255 69.100, 255 68.529 C 255 67.573, 152.933 15.942, 151.247 16.046 C 150.836 16.071, 126.987 27.879, 98.250 42.286 M 269.750 67.537 C 269.337 67.975, 269 91.910, 269 120.727 L 269 173.121 325.250 172.746 C 385.631 172.345, 389.576 172.045, 398.444 167.183 C 404.176 164.040, 406.786 160.842, 408.043 155.423 C 409.268 150.140, 409.228 136.361, 407.975 131.848 C 406.353 126.011, 400.666 121.669, 391.351 119.155 C 386.958 117.970, 382.157 117, 380.682 117 C 379.207 117, 378 116.550, 378 116 C 378 115.450, 379.462 114.995, 381.250 114.988 C 389.236 114.959, 399.600 110.740, 402.589 106.301 C 405.436 102.074, 405.120 91.843, 401.946 85.437 C 397.526 76.516, 388.392 72.088, 369.068 69.496 C 357.303 67.918, 270.994 66.215, 269.750 67.537 M 447.080 68.850 C 446.536 69.868, 445.198 73.805, 444.109 77.600 C 443.019 81.395, 439.439 93.725, 436.153 105 C 432.868 116.275, 427.214 135.680, 423.590 148.122 C 419.965 160.565, 417 171.252, 417 171.872 C 417 173.537, 477.595 173.465, 478.625 171.798 C 479.033 171.138, 480.091 166.975, 480.976 162.548 L 482.585 154.500 492.998 154.500 L 503.410 154.500 504.110 158 C 504.495 159.925, 505.334 164.088, 505.976 167.250 L 507.142 173 537.571 173 C 559.044 173, 568 172.676, 568 171.899 C 568 171.294, 560.800 148.881, 552 122.093 C 543.200 95.304, 536 72.849, 536 72.193 C 536 71.537, 535.100 70.100, 534 69 C 532.064 67.064, 530.667 67, 490.035 67 C 450.227 67, 448.019 67.095, 447.080 68.850 M 329 97.644 L 329 109.289 336.594 108.714 C 346.751 107.946, 348 106.777, 348 98.036 C 348 94.217, 347.456 90.638, 346.723 89.636 C 345.254 87.626, 339.405 86.058, 333.250 86.024 L 329 86 329 97.644 M 160 93.029 C 155.875 95.203, 151.738 96.986, 150.807 96.991 C 149.876 96.996, 143.951 99.511, 137.641 102.580 C 128.030 107.255, 125.832 107.981, 124.100 107.054 C 122.364 106.124, 120.272 106.841, 111.016 111.536 C 104.957 114.610, 100 117.542, 100 118.051 C 100 118.561, 96.400 120.788, 92 123 C 87.600 125.212, 84 127.481, 84 128.043 C 84 130.656, 87.825 130.036, 95.646 126.158 C 100.257 123.871, 104.721 122, 105.566 122 C 106.411 122, 112.269 119.517, 118.583 116.481 C 127.843 112.030, 130.438 111.164, 132.005 112.003 C 133.578 112.844, 136.058 111.985, 145.017 107.491 C 151.105 104.438, 156.317 101.338, 156.600 100.601 C 156.882 99.865, 160.688 97.585, 165.057 95.535 C 173.122 91.750, 174.254 90.695, 171.418 89.607 C 168.815 88.608, 167.825 88.905, 160 93.029 M 489.262 105.254 C 485.697 117.632, 482 132.225, 482 133.917 C 482 134.623, 485.506 135, 492.067 135 C 501.187 135, 502.086 134.835, 501.614 133.250 C 499.698 126.812, 494 98.880, 494 95.926 C 494 91.382, 492.283 94.763, 489.262 105.254 M 176 100.556 C 171.325 102.945, 166.505 104.922, 165.288 104.950 C 164.071 104.977, 158.671 107.284, 153.288 110.076 C 145.428 114.153, 142.839 115.048, 140.143 114.622 C 137.446 114.195, 134.642 115.166, 125.893 119.554 C 119.902 122.558, 115 125.458, 115 125.997 C 115 126.536, 111.400 128.788, 107 131 C 98.755 135.146, 97.576 136.413, 100.967 137.489 C 102.249 137.896, 105.642 136.680, 110.717 133.993 C 114.998 131.727, 119.661 129.719, 121.080 129.531 C 122.498 129.343, 128.291 126.886, 133.952 124.072 C 142.239 119.953, 144.874 119.073, 147.474 119.561 C 150.079 120.050, 152.675 119.178, 160.895 115.053 C 166.500 112.240, 171.309 109.359, 171.580 108.651 C 171.852 107.943, 175.657 105.617, 180.037 103.482 C 184.417 101.347, 188 99.255, 188 98.835 C 188 98.414, 187.213 97.652, 186.250 97.141 C 184.945 96.448, 182.338 97.317, 176 100.556 M 191 108.500 C 186.325 110.920, 181.547 112.922, 180.383 112.950 C 179.219 112.977, 173.645 115.272, 167.997 118.050 C 160.226 121.871, 157.055 122.951, 154.961 122.492 C 152.855 122.029, 149.725 123.120, 141.847 127.062 C 136.156 129.910, 131.135 132.870, 130.690 133.639 C 130.244 134.409, 126.214 136.881, 121.735 139.133 C 114.353 142.845, 113.762 143.353, 115.417 144.563 C 117.010 145.728, 118.375 145.330, 126.101 141.449 C 130.974 139.002, 135.877 137, 136.998 137 C 138.119 137, 143.595 134.712, 149.166 131.917 C 157.300 127.835, 159.928 126.952, 162.503 127.435 C 165.100 127.922, 167.590 127.056, 175.605 122.879 C 181.047 120.042, 186.209 116.996, 187.076 116.111 C 187.943 115.225, 191.880 112.951, 195.826 111.057 C 202.900 107.662, 204.517 105.796, 201.418 104.607 C 199.508 103.874, 201.052 103.297, 191 108.500 M 205.707 116.583 C 200.871 119.048, 196.527 120.826, 196.055 120.534 C 195.583 120.242, 190.196 122.478, 184.086 125.502 C 172.793 131.090, 170.594 131.771, 169.510 130.016 C 168.828 128.913, 147.994 139.006, 145.214 141.786 C 144.251 142.749, 140.433 145.044, 136.731 146.885 C 133.029 148.726, 130 150.644, 130 151.148 C 130 153.655, 133.934 152.982, 141.646 149.158 C 146.257 146.871, 150.930 145, 152.031 145 C 153.132 145, 158.987 142.515, 165.043 139.479 C 173.966 135.003, 176.421 134.155, 178 135 C 179.578 135.845, 182.004 135.012, 190.776 130.612 C 196.732 127.625, 202.234 124.423, 203.003 123.496 C 203.773 122.569, 207.687 120.293, 211.701 118.439 C 219.043 115.047, 220.338 113.727, 217.418 112.607 C 215.151 111.737, 215.342 111.672, 205.707 116.583 M 207 129.109 C 190.661 137.480, 187.198 138.916, 185.634 137.969 C 184.087 137.032, 181.868 137.819, 172.634 142.580 C 166.510 145.737, 161.344 148.715, 161.154 149.197 C 160.964 149.679, 157.252 151.862, 152.904 154.048 C 148.557 156.234, 145 158.437, 145 158.944 C 145 161.528, 149.385 160.829, 156.909 157.046 C 161.335 154.821, 165.673 153, 166.550 153 C 167.427 153, 173.269 150.489, 179.533 147.420 C 192.264 141.182, 191.543 141.201, 202.500 146.816 C 216.181 153.826, 218.372 151.323, 183.363 168.674 C 166.388 177.088, 151.935 183.978, 151.244 183.985 C 150.553 183.993, 135.934 176.971, 118.758 168.379 L 87.529 152.758 67.264 162.876 C 56.119 168.441, 47.014 173.333, 47.031 173.747 C 47.048 174.161, 70.455 186.111, 99.046 200.303 L 151.030 226.106 203.459 200.021 L 255.887 173.935 256.522 169.699 C 256.872 167.369, 256.949 158.046, 256.694 148.981 L 256.231 132.500 243.366 125.792 C 236.290 122.102, 229.600 119.092, 228.500 119.102 C 227.400 119.112, 217.725 123.615, 207 129.109 M 329 139.705 C 329 147.384, 329.201 153.868, 329.448 154.114 C 329.694 154.360, 333.363 154.278, 337.601 153.932 C 347.636 153.111, 348 152.603, 348 139.431 C 348 131.435, 347.666 128.967, 346.444 127.954 C 345.589 127.244, 341.314 126.456, 336.944 126.203 L 329 125.743 329 139.705 M 298.874 183.376 C 297.362 186.695, 298.232 188.590, 301.664 189.452 C 305.089 190.311, 307.173 191.912, 306.430 193.113 C 305.501 194.617, 301.151 194.092, 300.181 192.360 C 299.058 190.353, 296.853 191.454, 297.680 193.609 C 299.184 197.528, 307.433 197.337, 309.255 193.341 C 310.561 190.474, 309.461 189.026, 304.766 187.431 C 303.036 186.843, 301.444 185.831, 301.227 185.182 C 300.543 183.128, 303.978 182.670, 306.043 184.539 C 308.333 186.611, 309.924 185.694, 308.363 183.202 C 307.756 182.232, 305.731 181.367, 303.655 181.190 C 300.589 180.929, 299.832 181.275, 298.874 183.376 M 315.027 184.250 C 314.358 186.037, 313.108 189.192, 312.249 191.260 C 310.460 195.568, 311.472 197.610, 313.731 194.250 C 315.617 191.446, 319.560 191.310, 321 194 C 322.149 196.147, 325.550 196.834, 324.711 194.750 C 321.382 186.478, 318.506 181, 317.491 181 C 316.804 181, 315.695 182.463, 315.027 184.250 M 326.667 181.667 C 326.300 182.033, 326 185.408, 326 189.167 C 326 194.574, 326.313 196, 327.500 196 C 328.700 196, 329 194.500, 329 188.500 C 329 181.603, 328.422 179.911, 326.667 181.667 M 334.068 183.904 C 329.820 189.870, 332.636 196.400, 339.456 196.400 C 343.758 196.400, 346 194.508, 346 190.878 C 346 188.360, 345.632 188, 343.059 188 C 339.504 188, 337.963 189.916, 340.899 190.684 C 344.044 191.506, 343.518 194, 340.200 194 C 336.513 194, 335 192.335, 335 188.279 C 335 185.708, 335.564 184.700, 337.496 183.820 C 339.527 182.894, 340.333 182.991, 341.825 184.341 C 343.783 186.114, 346 186.546, 346 185.155 C 346 183.342, 342.190 181, 339.239 181 C 336.955 181, 335.590 181.767, 334.068 183.904 M 351.080 182.750 C 347.966 185.295, 347.312 190.929, 349.777 193.973 C 352.470 197.299, 358.480 197.361, 361.129 194.089 C 366.935 186.919, 358.133 176.986, 351.080 182.750 M 365.667 181.667 C 365.300 182.033, 365 185.408, 365 189.167 C 365 194.574, 365.313 196, 366.500 196 C 367.621 196, 368.003 194.800, 368.012 191.250 L 368.024 186.500 371.130 191.250 C 375.682 198.210, 377 197.593, 377 188.500 C 377 180.009, 375.265 178.225, 374.802 186.241 L 374.500 191.483 371.146 186.241 C 367.838 181.073, 366.978 180.355, 365.667 181.667 M 387 188.500 C 387 194.192, 387.322 196.058, 388.250 195.745 C 388.938 195.513, 389.516 194.013, 389.536 192.412 C 389.568 189.859, 389.938 189.500, 392.536 189.500 C 395.149 189.500, 395.537 189.885, 395.813 192.750 C 396.007 194.763, 396.673 196, 397.563 196 C 398.686 196, 399 194.342, 399 188.417 C 399 182.798, 398.676 180.940, 397.750 181.244 C 397.063 181.470, 396.355 182.883, 396.178 184.385 C 395.894 186.795, 395.485 187.080, 392.692 186.808 C 390.103 186.556, 389.525 186.061, 389.514 184.088 C 389.506 182.761, 388.938 181.486, 388.250 181.254 C 387.322 180.942, 387 182.809, 387 188.500 M 402.942 181.750 C 401.860 195.657, 401.872 196, 403.434 196 C 404.716 196, 405 194.641, 405 188.500 C 405 184.167, 404.578 181, 404 181 C 403.450 181, 402.974 181.338, 402.942 181.750 M 415 181.883 C 415 182.369, 415.900 183.002, 417 183.290 C 418.724 183.741, 419 184.654, 419 189.906 C 419 194.656, 419.331 196, 420.500 196 C 421.679 196, 422 194.611, 422 189.500 C 422 183.667, 422.205 183, 424 183 C 425.100 183, 426 182.550, 426 182 C 426 181.450, 423.525 181, 420.500 181 C 417.475 181, 415 181.398, 415 181.883 M 428.607 182.582 C 428.273 183.452, 428 186.827, 428 190.082 L 428 196 434 196 C 437.333 196, 440 195.556, 440 195 C 440 194.450, 437.975 194, 435.500 194 C 431.667 194, 431 193.704, 431 192 C 431 190.327, 431.667 190, 435.083 190 C 440.294 190, 439.948 187.635, 434.673 187.190 C 431.782 186.945, 431 186.457, 431 184.896 C 431 183.228, 431.579 182.960, 434.645 183.207 C 436.890 183.387, 438.458 183.020, 438.728 182.250 C 439.435 180.235, 429.381 180.565, 428.607 182.582 M 444.073 183.635 C 440.466 188.220, 441.791 194.847, 446.622 196.380 C 449.255 197.216, 453.852 195.550, 454.649 193.472 C 455.515 191.216, 454.028 190.198, 452.875 192.258 C 451.755 194.259, 447.967 194.567, 446.200 192.800 C 444.534 191.134, 444.696 185.497, 446.452 184.040 C 447.995 182.759, 452 183.501, 452 185.067 C 452 185.580, 452.675 186, 453.500 186 C 455.441 186, 455.411 184.554, 453.429 182.571 C 450.950 180.093, 446.457 180.604, 444.073 183.635 M 458 188.500 C 458 194.186, 458.323 196.061, 459.250 195.756 C 459.938 195.531, 460.643 193.891, 460.818 192.113 C 461.098 189.258, 461.449 188.916, 463.818 189.190 C 466.034 189.446, 466.554 190.064, 466.813 192.750 C 467.007 194.763, 467.673 196, 468.563 196 C 469.686 196, 470 194.342, 470 188.417 C 470 182.798, 469.676 180.940, 468.750 181.244 C 468.063 181.470, 467.358 182.857, 467.184 184.327 C 466.923 186.529, 466.362 187, 464 187 C 461.638 187, 461.077 186.529, 460.816 184.327 C 460.642 182.857, 459.938 181.470, 459.250 181.244 C 458.323 180.939, 458 182.814, 458 188.500 M 479.667 181.667 C 479.300 182.033, 479 185.408, 479 189.167 C 479 194.574, 479.313 196, 480.500 196 C 481.433 196, 482 195.056, 482 193.500 C 482 191.565, 482.515 191, 484.277 191 C 489.847 191, 493.397 184.353, 489.066 182.035 C 486.906 180.879, 480.698 180.636, 479.667 181.667 M 496.240 182.250 C 495.688 182.938, 494.110 186.313, 492.734 189.750 C 490.713 194.801, 490.516 196, 491.710 196 C 492.522 196, 493.423 195.100, 493.710 194 C 494.086 192.565, 495.074 192, 497.210 192 C 499.346 192, 500.335 192.565, 500.710 194 C 501.236 196.010, 504 196.859, 504 195.011 C 504 193.184, 498.796 181, 498.016 181 C 497.592 181, 496.793 181.563, 496.240 182.250 M 506.667 181.667 C 506.300 182.033, 506 185.408, 506 189.167 C 506 194.574, 506.313 196, 507.500 196 C 508.500 196, 509 195, 509 193 C 509 191.027, 509.503 190, 510.470 190 C 511.279 190, 512.938 191.350, 514.158 193 C 517.638 197.707, 520.710 196.886, 517.384 192.138 C 516.195 190.441, 516.063 189.537, 516.884 188.716 C 518.354 187.246, 518.308 183.708, 516.800 182.200 C 515.535 180.935, 507.805 180.528, 506.667 181.667 M 521.667 181.667 C 521.300 182.033, 521 185.408, 521 189.167 C 521 194.574, 521.313 196, 522.500 196 C 523.500 196, 524 195, 524 193 C 524 189.145, 525.925 189.145, 528.500 193 C 529.600 194.647, 531.063 195.996, 531.750 195.997 C 533.596 196.001, 533.291 194.783, 530.500 190.999 L 527.999 187.610 530.677 184.816 C 532.149 183.278, 533.085 181.752, 532.756 181.422 C 532.055 180.722, 526 184.993, 526 186.188 C 526 186.635, 525.550 187, 525 187 C 524.450 187, 524 185.650, 524 184 C 524 181.133, 523.100 180.233, 521.667 181.667 M 352.571 184.571 C 350.712 186.431, 350.501 191.101, 352.200 192.800 C 352.860 193.460, 354.345 194, 355.500 194 C 358.342 194, 360 192.141, 360 188.955 C 360 186.325, 357.344 183, 355.243 183 C 354.638 183, 353.436 183.707, 352.571 184.571 M 482 185.500 C 482 187.611, 482.467 188, 485 188 C 487.277 188, 488 187.544, 488 186.107 C 488 184.237, 486.176 183, 483.418 183 C 482.572 183, 482 184.009, 482 185.500 M 509 185.481 C 509 187.431, 509.508 187.997, 511.250 187.985 C 512.487 187.976, 514.171 187.545, 514.992 187.026 C 516.839 185.858, 515.557 184.507, 511.750 183.610 C 509.306 183.034, 509 183.242, 509 185.481 M 316.526 186.959 C 316.112 187.627, 316.268 188.668, 316.870 189.270 C 318.407 190.807, 319.380 189.501, 318.230 187.447 C 317.530 186.196, 317.077 186.067, 316.526 186.959 M 496.526 186.959 C 496.112 187.627, 496.268 188.668, 496.870 189.270 C 498.407 190.807, 499.380 189.501, 498.230 187.447 C 497.530 186.196, 497.077 186.067, 496.526 186.959 M 407 191 C 407 191.550, 408.350 192, 410 192 C 411.650 192, 413 191.550, 413 191 C 413 190.450, 411.650 190, 410 190 C 408.350 190, 407 190.450, 407 191 M 275.201 205.855 C 274.288 206.434, 273.990 208.737, 274.201 213.590 L 274.500 220.500 278.208 220.808 C 280.247 220.977, 282.834 220.624, 283.958 220.023 C 286.121 218.865, 286.769 214.593, 284.951 213.470 C 284.229 213.023, 284.250 212.403, 285.021 211.475 C 286.362 209.859, 284.913 206.564, 282.446 205.618 C 280.209 204.759, 276.749 204.872, 275.201 205.855 M 298.560 208.222 C 298.263 210.025, 297.903 213.071, 297.760 214.992 C 297.578 217.432, 296.959 218.586, 295.702 218.824 C 292.477 219.436, 291 217.097, 291 211.378 C 291 208.420, 290.550 206, 290 206 C 288.566 206, 288.745 218.345, 290.200 219.800 C 290.860 220.460, 292.859 221, 294.643 221 C 299.031 221, 301 218.006, 301 211.337 C 301 205.384, 299.371 203.305, 298.560 208.222 M 305.655 206.829 C 302.520 210.293, 304.068 213.389, 309.686 214.891 C 311.234 215.305, 312.500 216.287, 312.500 217.072 C 312.500 219.074, 308.589 219.415, 307.040 217.548 C 305.672 215.900, 303 215.434, 303 216.845 C 303 218.669, 306.818 221, 309.806 221 C 312.069 221, 313.419 220.290, 314.609 218.474 C 316.158 216.109, 316.150 215.823, 314.477 213.974 C 313.494 212.888, 311.946 212, 311.036 212 C 310.127 212, 308.509 211.357, 307.441 210.571 C 305.590 209.209, 305.584 209.110, 307.317 208.439 C 308.317 208.051, 310.229 208.320, 311.566 209.035 C 314.721 210.724, 315.825 209.569, 313.506 207.006 C 311.242 204.505, 307.828 204.428, 305.655 206.829 M 318.470 207.263 C 317.505 211.109, 318.377 220.302, 319.750 220.755 C 320.676 221.060, 321 219.215, 321 213.642 C 321 206.211, 319.612 202.712, 318.470 207.263 M 334.528 206.187 C 334.276 206.909, 333.939 209.300, 333.780 211.500 L 333.489 215.500 330.495 210.782 C 328.824 208.149, 326.726 206.049, 325.750 206.032 C 324.234 206.004, 324 207.016, 324 213.583 C 324 219.210, 324.323 221.057, 325.250 220.741 C 325.981 220.492, 326.500 218.591, 326.500 216.157 C 326.500 213.869, 326.796 211.998, 327.158 211.999 C 327.520 211.999, 329.095 214.024, 330.658 216.498 C 335.151 223.610, 337 222.292, 337 211.977 C 337 206.524, 335.575 203.185, 334.528 206.187 M 341.365 205.739 C 340.741 206.158, 340.066 209.650, 339.865 213.500 L 339.500 220.500 345.351 220.803 C 349.657 221.026, 351.093 220.779, 350.790 219.869 C 350.561 219.184, 348.629 218.603, 346.457 218.566 C 343.553 218.517, 342.448 218.046, 342.195 216.750 C 341.915 215.314, 342.584 215, 345.927 215 C 348.881 215, 350 214.588, 350 213.500 C 350 212.417, 348.889 212, 346 212 C 342.667 212, 342 211.667, 342 210 C 342 208.291, 342.667 208, 346.583 208 C 349.803 208, 351.044 207.628, 350.756 206.750 C 350.293 205.342, 343.111 204.569, 341.365 205.739 M 355.750 206.392 C 354.788 207.123, 354 208.860, 354 210.252 C 354 212.262, 354.805 213.105, 357.915 214.349 C 362.492 216.181, 363.641 217.540, 361.353 218.418 C 359.385 219.173, 356 218.234, 356 216.933 C 356 216.420, 355.325 216, 354.500 216 C 352.348 216, 352.649 218.742, 354.934 219.965 C 357.546 221.363, 362.326 221.274, 363.800 219.800 C 366.408 217.192, 364.538 212, 360.991 212 C 360.106 212, 358.509 211.357, 357.441 210.571 C 355.590 209.209, 355.584 209.110, 357.317 208.439 C 358.317 208.051, 360.229 208.320, 361.566 209.035 C 364.897 210.818, 366.045 209.270, 363.139 206.914 C 360.392 204.687, 358.200 204.532, 355.750 206.392 M 369.655 206.829 C 366.628 210.174, 367.554 212.664, 372.534 214.566 C 375.027 215.518, 376.905 216.793, 376.705 217.399 C 376.130 219.149, 372.449 219.246, 371.040 217.548 C 369.414 215.589, 367 215.539, 367 217.465 C 367 219.375, 370.117 221, 373.779 221 C 376.582 221, 380 218.432, 380 216.326 C 380 214.862, 376.602 212, 374.862 212 C 374.048 212, 372.509 211.357, 371.441 210.571 C 369.590 209.209, 369.584 209.110, 371.317 208.439 C 372.317 208.051, 374.229 208.320, 375.566 209.035 C 378.721 210.724, 379.825 209.569, 377.506 207.006 C 375.242 204.505, 371.828 204.428, 369.655 206.829 M 382.667 205.667 C 382.300 206.033, 382 209.656, 382 213.717 L 382 221.100 387.512 220.800 C 390.555 220.634, 392.906 220.052, 392.762 219.500 C 392.618 218.950, 390.813 218.651, 388.750 218.836 C 385.540 219.124, 385 218.880, 385 217.146 C 385 215.536, 385.753 215.057, 388.673 214.810 C 393.948 214.365, 394.294 212, 389.083 212 C 385.667 212, 385 211.673, 385 210 C 385 208.333, 385.667 208, 389 208 C 391.889 208, 393 207.583, 393 206.500 C 393 205.374, 391.796 205, 388.167 205 C 385.508 205, 383.033 205.300, 382.667 205.667 M 397.655 206.829 C 394.520 210.293, 396.068 213.389, 401.686 214.891 C 403.234 215.305, 404.500 216.280, 404.500 217.058 C 404.500 219.369, 400.995 219.344, 398.516 217.015 C 395.670 214.341, 393.930 216.160, 396.557 219.063 C 398.851 221.597, 404.145 221.602, 406.435 219.072 C 409.068 216.162, 407.630 213.247, 402.940 211.984 C 400.635 211.363, 399 210.317, 399 209.461 C 399 207.819, 402.545 207.455, 403.500 209 C 404.445 210.529, 407 210.189, 407 208.535 C 407 205.127, 400.302 203.904, 397.655 206.829 M 420 206.441 C 420 207.298, 419.559 208, 419.019 208 C 418.480 208, 417.735 209.208, 417.365 210.683 C 416.994 212.159, 416.088 214.522, 415.352 215.933 C 414.615 217.345, 414.010 219.063, 414.006 219.750 C 413.997 221.682, 415.808 221.228, 417 219 C 417.686 217.719, 419.094 217, 420.919 217 C 422.926 217, 423.921 217.591, 424.290 219 C 424.577 220.100, 425.560 221, 426.474 221 C 428.380 221, 428.086 219.584, 424.476 211.378 C 422.141 206.069, 420 203.707, 420 206.441 M 431 207 C 427.549 210.451, 428.901 213.344, 434.686 214.891 C 437.732 215.706, 438.515 218.277, 435.871 218.786 C 434.976 218.959, 433.545 218.402, 432.693 217.550 C 430.804 215.661, 429 215.539, 429 217.300 C 429 219.584, 431.296 221, 435 221 C 439.112 221, 441 219.560, 441 216.422 C 441 213.739, 439.470 212.438, 435.250 211.536 C 433.462 211.154, 432 210.413, 432 209.889 C 432 208.179, 435.082 207.706, 437.566 209.035 C 440.897 210.818, 442.045 209.270, 439.139 206.914 C 436.112 204.459, 433.513 204.487, 431 207 M 445.128 207.564 C 442.523 210.876, 443.154 212.274, 448.300 214.601 C 450.610 215.645, 452.500 216.950, 452.500 217.500 C 452.500 219.171, 448.352 219.209, 446.696 217.553 C 444.739 215.597, 443 215.555, 443 217.465 C 443 220.714, 451.626 222.360, 453.954 219.555 C 456.318 216.707, 454.788 213.600, 450.250 212.031 C 447.913 211.223, 446 210.196, 446 209.749 C 446 208.161, 449.172 207.754, 451.566 209.035 C 454.897 210.818, 456.045 209.270, 453.139 206.914 C 449.933 204.314, 447.531 204.509, 445.128 207.564 M 460.913 206.282 C 456.604 209.591, 455.842 215.564, 459.314 218.826 C 466.653 225.720, 476.674 214.583, 469.545 207.455 C 466.896 204.805, 463.447 204.336, 460.913 206.282 M 475.490 208.195 C 473.299 210.798, 472.908 212.047, 473.378 214.941 C 474.063 219.161, 476.235 221, 480.536 221 C 484.112 221, 488.014 217.614, 486.353 215.953 C 485.686 215.286, 484.742 215.627, 483.521 216.976 C 482.514 218.089, 481.117 219, 480.416 219 C 478.259 219, 476 215.997, 476 213.129 C 476 208.266, 479.683 206.498, 483.195 209.676 C 484.499 210.857, 485.361 211.039, 486.107 210.293 C 487.539 208.861, 483.377 205, 480.400 205 C 479.128 205, 477.028 206.366, 475.490 208.195 M 489.605 206.588 C 489.272 207.454, 489 211.052, 489 214.582 C 489 219.620, 489.322 221, 490.500 221 C 491.699 221, 492 219.507, 492 213.559 C 492 206.446, 490.894 203.228, 489.605 206.588 M 507.438 205.896 C 506.403 206.930, 507.159 207.883, 509.250 208.180 C 511.271 208.467, 511.530 209.136, 511.798 214.750 C 511.961 218.188, 512.515 221, 513.029 221 C 514.485 221, 515.305 216.307, 514.608 211.953 C 514.009 208.202, 514.109 208, 516.572 208 C 518.008 208, 519.004 207.511, 518.802 206.905 C 518.455 205.866, 508.364 204.970, 507.438 205.896 M 529.452 207.646 C 526.419 210.919, 526.102 216.877, 528.829 219.345 C 531.345 221.622, 536.555 221.445, 539 219 C 542.058 215.942, 541.727 209.717, 538.365 207.073 C 534.845 204.304, 532.404 204.461, 529.452 207.646 M 553.568 206.083 C 553.294 206.862, 552.942 209.300, 552.785 211.500 L 552.500 215.500 549.655 210.750 C 545.436 203.706, 544 204.405, 544 213.500 C 544 221.956, 545.733 223.787, 546.198 215.823 L 546.500 210.646 549.759 215.903 C 551.551 218.795, 553.576 220.976, 554.259 220.751 C 555.814 220.237, 556.530 207.130, 555.082 205.682 C 554.393 204.993, 553.905 205.123, 553.568 206.083 M 496.687 212.878 C 493.671 220.598, 493.589 221, 495.021 221 C 495.583 221, 496.555 219.875, 497.182 218.500 C 498.898 214.733, 503.643 215.747, 505.286 220.232 C 505.633 221.180, 506.055 221.214, 506.957 220.368 C 507.844 219.536, 507.877 218.740, 507.082 217.368 C 506.487 216.341, 505.116 213.363, 504.035 210.750 C 502.955 208.137, 501.464 206, 500.722 206 C 499.980 206, 498.164 209.095, 496.687 212.878 M 521.667 206.667 C 521.300 207.033, 521 210.408, 521 214.167 C 521 219.574, 521.313 221, 522.500 221 C 523.700 221, 524 219.500, 524 213.500 C 524 206.603, 523.422 204.911, 521.667 206.667 M 277.667 208.667 C 277.300 209.033, 277 209.933, 277 210.667 C 277 212.280, 281.596 212.463, 282.569 210.888 C 283.706 209.049, 279.287 207.046, 277.667 208.667 M 461.200 209.200 C 459.349 211.051, 459.778 215.489, 462.004 217.504 C 464.943 220.163, 469 218.185, 469 214.093 C 469 209.184, 464.217 206.183, 461.200 209.200 M 531.187 208.863 C 529.459 209.959, 529.346 215.507, 531.011 217.514 C 532.925 219.820, 536.278 218.925, 537.821 215.697 C 538.973 213.285, 538.936 212.552, 537.557 210.447 C 535.925 207.956, 533.549 207.365, 531.187 208.863 M 499.639 211.498 C 498.746 213.825, 498.807 214, 500.500 214 C 502.183 214, 502.373 213.137, 501.124 211.166 C 500.449 210.102, 500.149 210.169, 499.639 211.498 M 277.190 216.750 C 277.403 217.854, 278.440 218.500, 280 218.500 C 281.560 218.500, 282.597 217.854, 282.810 216.750 C 283.073 215.383, 282.459 215, 280 215 C 277.541 215, 276.927 215.383, 277.190 216.750" stroke="none" fill="#040404" fill-rule="evenodd"/></svg>